<svg width="608" height="421" viewBox="0 0 608 421" fill="none" xmlns="http://www.w3.org/2000/svg">
<g filter="url(#filter0_d)">
<rect x="64" y="271" width="480" height="47" fill="white"/>
<rect x="64.5" y="271.5" width="479" height="46" stroke="black" stroke-opacity="0.4"/>
</g>
<rect x="63" y="168" width="480" height="47" fill="#FF2F56"/>
<g filter="url(#filter1_d)">
<path d="M560 255H48V305.133H560V255Z" fill="white"/>
<path d="M559.467 255.533H48.5333V304.6H559.467V255.533Z" stroke="black" stroke-opacity="0.4"/>
<path d="M105.958 290.017C105.131 288.972 104.431 287.75 103.858 286.35C103.286 284.95 103 283.5 103 282C103 280.678 103.214 279.411 103.642 278.2C104.142 276.794 104.914 275.394 105.958 274H107.033C106.361 275.156 105.917 275.981 105.7 276.475C105.361 277.242 105.095 278.042 104.9 278.875C104.661 279.914 104.542 280.958 104.542 282.008C104.542 284.681 105.372 287.35 107.033 290.017H105.958ZM111.583 283.417C111.578 283.217 111.575 283.067 111.575 282.967C111.575 282.378 111.658 281.869 111.825 281.442C111.947 281.119 112.145 280.794 112.417 280.467C112.617 280.228 112.975 279.881 113.492 279.425C114.014 278.964 114.353 278.597 114.508 278.325C114.664 278.053 114.742 277.756 114.742 277.433C114.742 276.85 114.514 276.339 114.058 275.9C113.603 275.456 113.044 275.233 112.383 275.233C111.745 275.233 111.211 275.433 110.783 275.833C110.356 276.233 110.075 276.858 109.942 277.708L108.4 277.525C108.539 276.386 108.95 275.514 109.633 274.908C110.322 274.303 111.231 274 112.358 274C113.553 274 114.506 274.325 115.217 274.975C115.928 275.625 116.283 276.411 116.283 277.333C116.283 277.867 116.158 278.358 115.908 278.808C115.658 279.258 115.169 279.806 114.442 280.45C113.953 280.883 113.633 281.203 113.483 281.408C113.333 281.614 113.222 281.85 113.15 282.117C113.078 282.383 113.036 282.817 113.025 283.417H111.583ZM111.492 286.425V284.717H113.2V286.425H111.492ZM119.258 290.017H118.183C119.844 287.35 120.675 284.681 120.675 282.008C120.675 280.964 120.556 279.928 120.317 278.9C120.128 278.067 119.864 277.267 119.525 276.5C119.308 276 118.861 275.167 118.183 274H119.258C120.303 275.394 121.075 276.794 121.575 278.2C122.003 279.411 122.217 280.678 122.217 282C122.217 283.5 121.928 284.95 121.35 286.35C120.778 287.75 120.081 288.972 119.258 290.017Z" fill="#999999"/>
</g>
<rect x="81" y="362" width="2.5" height="32" fill="#CCCCCC"/>
<rect x="85" y="362" width="2.5" height="32" fill="#CCCCCC"/>
<rect x="89" y="362" width="2.5" height="32" fill="#CCCCCC"/>
<rect x="93" y="362" width="2.5" height="32" fill="#CCCCCC"/>
<rect x="97" y="362" width="2.5" height="32" fill="#CCCCCC"/>
<rect x="101" y="362" width="2.5" height="32" fill="#CCCCCC"/>
<rect x="105" y="362" width="2.5" height="32" fill="#CCCCCC"/>
<rect x="109" y="362" width="2.5" height="32" fill="#CCCCCC"/>
<rect x="113" y="362" width="2.5" height="32" fill="#CCCCCC"/>
<rect x="117" y="362" width="2.5" height="32" fill="#CCCCCC"/>
<rect x="121" y="362" width="2.5" height="32" fill="#CCCCCC"/>
<rect x="125" y="362" width="2.5" height="32" fill="#CCCCCC"/>
<rect x="129" y="362" width="2.5" height="32" fill="#CCCCCC"/>
<rect x="133" y="362" width="2.5" height="32" fill="#CCCCCC"/>
<rect x="137" y="362" width="2.5" height="32" fill="#CCCCCC"/>
<rect x="141" y="362" width="2.5" height="32" fill="#CCCCCC"/>
<rect x="145" y="362" width="2.5" height="32" fill="#CCCCCC"/>
<rect x="149" y="362" width="2.5" height="32" fill="#CCCCCC"/>
<rect x="153" y="362" width="2.5" height="32" fill="#CCCCCC"/>
<rect x="157" y="362" width="2.5" height="32" fill="#CCCCCC"/>
<rect x="161" y="362" width="2.5" height="32" fill="#CCCCCC"/>
<rect x="165" y="362" width="2.5" height="32" fill="#CCCCCC"/>
<rect x="169" y="362" width="2.5" height="32" fill="#CCCCCC"/>
<rect x="173" y="362" width="2.5" height="32" fill="#CCCCCC"/>
<rect x="177" y="362" width="2.5" height="32" fill="#CCCCCC"/>
<rect x="181" y="362" width="2.5" height="32" fill="#CCCCCC"/>
<rect x="185" y="362" width="2.5" height="32" fill="#CCCCCC"/>
<rect x="189" y="362" width="2.5" height="32" fill="#CCCCCC"/>
<rect x="193" y="362" width="2.5" height="32" fill="#CCCCCC"/>
<rect x="197" y="362" width="2.5" height="32" fill="#CCCCCC"/>
<rect x="201" y="362" width="2.5" height="32" fill="#CCCCCC"/>
<rect x="205" y="362" width="2.5" height="32" fill="#CCCCCC"/>
<rect x="209" y="362" width="2.5" height="32" fill="#CCCCCC"/>
<rect x="213" y="362" width="2.5" height="32" fill="#CCCCCC"/>
<rect x="217" y="362" width="2.5" height="32" fill="#CCCCCC"/>
<rect x="221" y="362" width="2.5" height="32" fill="#CCCCCC"/>
<rect x="225" y="362" width="2.5" height="32" fill="#CCCCCC"/>
<rect x="229" y="362" width="2.5" height="32" fill="#CCCCCC"/>
<rect x="233" y="362" width="2.5" height="32" fill="#CCCCCC"/>
<rect x="237" y="362" width="2.5" height="32" fill="#CCCCCC"/>
<rect x="241" y="362" width="2.5" height="32" fill="#CCCCCC"/>
<rect x="245" y="362" width="2.5" height="32" fill="#CCCCCC"/>
<rect x="249" y="362" width="2.5" height="32" fill="#CCCCCC"/>
<rect x="253" y="362" width="2.5" height="32" fill="#CCCCCC"/>
<rect x="257" y="362" width="2.5" height="32" fill="#CCCCCC"/>
<rect x="261" y="362" width="2.5" height="32" fill="#CCCCCC"/>
<rect x="265" y="362" width="2.5" height="32" fill="#CCCCCC"/>
<rect x="269" y="362" width="2.5" height="32" fill="#CCCCCC"/>
<rect x="273" y="362" width="2.5" height="32" fill="#CCCCCC"/>
<rect x="277" y="362" width="2.5" height="32" fill="#CCCCCC"/>
<rect x="281" y="362" width="2.5" height="32" fill="#CCCCCC"/>
<rect x="285" y="362" width="2.5" height="32" fill="#CCCCCC"/>
<rect x="289" y="362" width="2.5" height="32" fill="#CCCCCC"/>
<rect x="293" y="362" width="2.5" height="32" fill="#CCCCCC"/>
<rect x="297" y="362" width="2.5" height="32" fill="#CCCCCC"/>
<rect x="301" y="362" width="2.5" height="32" fill="#CCCCCC"/>
<rect x="305" y="362" width="2.5" height="32" fill="#CCCCCC"/>
<rect x="309" y="362" width="2.5" height="32" fill="#CCCCCC"/>
<rect x="313" y="362" width="2.5" height="32" fill="#CCCCCC"/>
<rect x="317" y="362" width="2.5" height="32" fill="#CCCCCC"/>
<rect x="321" y="362" width="2.5" height="32" fill="#CCCCCC"/>
<rect x="325" y="362" width="2.5" height="32" fill="#CCCCCC"/>
<rect x="329" y="362" width="2.5" height="32" fill="#CCCCCC"/>
<rect x="333" y="362" width="2.5" height="32" fill="#CCCCCC"/>
<rect x="337" y="362" width="2.5" height="32" fill="#CCCCCC"/>
<rect x="341" y="362" width="2.5" height="32" fill="#CCCCCC"/>
<rect x="345" y="362" width="2.5" height="32" fill="#CCCCCC"/>
<rect x="349" y="362" width="2.5" height="32" fill="#CCCCCC"/>
<rect x="353" y="362" width="2.5" height="32" fill="#CCCCCC"/>
<rect x="357" y="362" width="2.5" height="32" fill="#CCCCCC"/>
<rect x="361" y="362" width="2.5" height="32" fill="#CCCCCC"/>
<rect x="365" y="362" width="2.5" height="32" fill="#CCCCCC"/>
<rect x="369" y="362" width="2.5" height="32" fill="#CCCCCC"/>
<rect x="373" y="362" width="2.5" height="32" fill="#CCCCCC"/>
<rect x="377" y="362" width="2.5" height="32" fill="#CCCCCC"/>
<rect x="381" y="362" width="2.5" height="32" fill="#CCCCCC"/>
<rect x="385" y="362" width="2.5" height="32" fill="#CCCCCC"/>
<rect x="389" y="362" width="2.5" height="32" fill="#CCCCCC"/>
<rect x="393" y="362" width="2.5" height="32" fill="#CCCCCC"/>
<rect x="397" y="362" width="2.5" height="32" fill="#CCCCCC"/>
<rect x="401" y="362" width="2.5" height="32" fill="#CCCCCC"/>
<rect x="405" y="362" width="2.5" height="32" fill="#CCCCCC"/>
<rect x="409" y="362" width="2.5" height="32" fill="#CCCCCC"/>
<rect x="413" y="362" width="2.5" height="32" fill="#CCCCCC"/>
<rect x="417" y="362" width="2.5" height="32" fill="#CCCCCC"/>
<rect x="421" y="362" width="2.5" height="32" fill="#CCCCCC"/>
<rect x="425" y="362" width="2.5" height="32" fill="#CCCCCC"/>
<rect x="429" y="362" width="2.5" height="32" fill="#CCCCCC"/>
<rect x="433" y="362" width="2.5" height="32" fill="#CCCCCC"/>
<rect x="437" y="362" width="2.5" height="32" fill="#CCCCCC"/>
<rect x="441" y="362" width="2.5" height="32" fill="#CCCCCC"/>
<rect x="445" y="362" width="2.5" height="32" fill="#CCCCCC"/>
<rect x="449" y="362" width="2.5" height="32" fill="#CCCCCC"/>
<rect x="453" y="362" width="2.5" height="32" fill="#CCCCCC"/>
<rect x="457" y="362" width="2.5" height="32" fill="#CCCCCC"/>
<rect x="461" y="362" width="2.5" height="32" fill="#CCCCCC"/>
<rect x="465" y="362" width="2.5" height="32" fill="#CCCCCC"/>
<rect x="469" y="362" width="2.5" height="32" fill="#CCCCCC"/>
<rect x="473" y="362" width="2.5" height="32" fill="#CCCCCC"/>
<rect x="477" y="362" width="2.5" height="32" fill="#CCCCCC"/>
<rect x="481" y="362" width="2.5" height="32" fill="#CCCCCC"/>
<rect x="485" y="362" width="2.5" height="32" fill="#CCCCCC"/>
<rect x="489" y="362" width="2.5" height="32" fill="#CCCCCC"/>
<rect x="493" y="362" width="2.5" height="32" fill="#CCCCCC"/>
<rect x="497" y="362" width="2.5" height="32" fill="#CCCCCC"/>
<rect x="501" y="362" width="2.5" height="32" fill="#CCCCCC"/>
<rect x="505" y="362" width="2.5" height="32" fill="#CCCCCC"/>
<rect x="509" y="362" width="2.5" height="32" fill="#CCCCCC"/>
<rect x="513" y="362" width="2.5" height="32" fill="#CCCCCC"/>
<rect x="517" y="362" width="2.5" height="32" fill="#CCCCCC"/>
<rect x="521" y="362" width="2.5" height="32" fill="#CCCCCC"/>
<rect x="525" y="362" width="2.5" height="32" fill="#CCCCCC"/>
<path d="M83.4659 400.182V406H82.7614V401.205H82.7159C82.6894 401.258 82.6212 401.318 82.5114 401.386C82.4015 401.453 82.2595 401.511 82.0852 401.562C81.911 401.612 81.7121 401.636 81.4886 401.636V401.045C81.714 401.045 81.9091 401.005 82.0739 400.923C82.2386 400.842 82.3759 400.746 82.4858 400.636C82.5975 400.527 82.6818 400.427 82.7386 400.338C82.7973 400.249 82.8314 400.197 82.8409 400.182H83.4659ZM86.9972 400.182V406H86.2926V401.205H86.2472C86.2206 401.258 86.1525 401.318 86.0426 401.386C85.9328 401.453 85.7907 401.511 85.6165 401.562C85.4422 401.612 85.2434 401.636 85.0199 401.636V401.045C85.2453 401.045 85.4403 401.005 85.6051 400.923C85.7699 400.842 85.9072 400.746 86.017 400.636C86.1288 400.527 86.2131 400.427 86.2699 400.338C86.3286 400.249 86.3627 400.197 86.3722 400.182H86.9972ZM88.6648 406V405.489L90.5852 403.386C90.8106 403.14 90.9962 402.926 91.142 402.744C91.2879 402.561 91.3958 402.388 91.4659 402.227C91.5379 402.064 91.5739 401.894 91.5739 401.716C91.5739 401.409 91.4669 401.166 91.2528 400.986C91.0407 400.806 90.7765 400.716 90.4602 400.716C90.1231 400.716 89.8551 400.817 89.6562 401.02C89.4574 401.221 89.358 401.487 89.358 401.818H88.6875C88.6875 401.477 88.7661 401.178 88.9233 400.92C89.0805 400.663 89.2945 400.462 89.5653 400.318C89.8381 400.174 90.1439 400.102 90.483 400.102C90.8239 400.102 91.1259 400.174 91.3892 400.318C91.6525 400.462 91.8589 400.656 92.0085 400.901C92.1581 401.145 92.233 401.417 92.233 401.716C92.233 401.93 92.1941 402.139 92.1165 402.344C92.0407 402.546 91.9081 402.773 91.7188 403.023C91.5312 403.271 91.2708 403.574 90.9375 403.932L89.6307 405.33V405.375H92.3352V406H88.6648ZM97.4176 406.091C97.054 406.091 96.733 405.999 96.4545 405.815C96.1761 405.63 95.9583 405.368 95.8011 405.031C95.6439 404.692 95.5653 404.292 95.5653 403.83C95.5653 403.371 95.6439 402.973 95.8011 402.636C95.9583 402.299 96.1771 402.039 96.4574 401.855C96.7377 401.671 97.0616 401.58 97.429 401.58C97.7131 401.58 97.9375 401.627 98.1023 401.722C98.2689 401.814 98.3958 401.92 98.483 402.04C98.572 402.157 98.6411 402.254 98.6903 402.33H98.7472V400.182H99.4176V406H98.7699V405.33H98.6903C98.6411 405.409 98.571 405.509 98.4801 405.631C98.3892 405.75 98.2595 405.857 98.0909 405.952C97.9223 406.045 97.6979 406.091 97.4176 406.091ZM97.5085 405.489C97.9119 405.489 98.2206 405.334 98.4347 405.026C98.6506 404.715 98.7585 404.312 98.7585 403.818C98.7585 403.33 98.6525 402.935 98.4403 402.634C98.2282 402.332 97.9176 402.182 97.5085 402.182C97.2244 402.182 96.9877 402.255 96.7983 402.401C96.6108 402.545 96.4697 402.741 96.375 402.989C96.2822 403.235 96.2358 403.511 96.2358 403.818C96.2358 404.129 96.2831 404.411 96.3778 404.665C96.4744 404.917 96.6165 405.117 96.804 405.267C96.9934 405.415 97.2282 405.489 97.5085 405.489ZM102.023 406.102C101.746 406.102 101.495 406.05 101.27 405.946C101.045 405.84 100.866 405.688 100.733 405.489C100.6 405.288 100.534 405.045 100.534 404.761C100.534 404.511 100.583 404.309 100.682 404.153C100.78 403.996 100.912 403.873 101.077 403.784C101.241 403.695 101.423 403.629 101.622 403.585C101.823 403.54 102.025 403.504 102.227 403.477C102.492 403.443 102.707 403.418 102.872 403.401C103.039 403.382 103.16 403.35 103.236 403.307C103.313 403.263 103.352 403.187 103.352 403.08V403.057C103.352 402.777 103.276 402.559 103.122 402.403C102.971 402.248 102.741 402.17 102.432 402.17C102.112 402.17 101.861 402.241 101.679 402.381C101.497 402.521 101.369 402.67 101.295 402.83L100.659 402.602C100.773 402.337 100.924 402.131 101.114 401.983C101.305 401.833 101.513 401.729 101.739 401.67C101.966 401.61 102.189 401.58 102.409 401.58C102.549 401.58 102.71 401.597 102.892 401.631C103.076 401.663 103.253 401.73 103.423 401.832C103.596 401.935 103.739 402.089 103.852 402.295C103.966 402.502 104.023 402.778 104.023 403.125V406H103.352V405.409H103.318C103.273 405.504 103.197 405.605 103.091 405.713C102.985 405.821 102.844 405.913 102.668 405.989C102.491 406.064 102.277 406.102 102.023 406.102ZM102.125 405.5C102.39 405.5 102.614 405.448 102.795 405.344C102.979 405.24 103.117 405.105 103.21 404.94C103.305 404.776 103.352 404.602 103.352 404.42V403.807C103.324 403.841 103.261 403.872 103.165 403.901C103.07 403.927 102.96 403.951 102.835 403.972C102.712 403.991 102.592 404.008 102.474 404.023C102.359 404.036 102.265 404.047 102.193 404.057C102.019 404.08 101.856 404.116 101.705 404.168C101.555 404.217 101.434 404.292 101.341 404.392C101.25 404.491 101.205 404.625 101.205 404.795C101.205 405.028 101.291 405.205 101.463 405.324C101.637 405.441 101.858 405.5 102.125 405.5ZM105.499 407.693C105.386 407.693 105.284 407.684 105.195 407.665C105.106 407.648 105.045 407.631 105.011 407.614L105.181 407.023C105.425 407.085 105.629 407.083 105.792 407.017C105.957 406.953 106.098 406.758 106.215 406.432L106.363 406.023L104.749 401.636H105.477L106.681 405.114H106.727L107.931 401.636H108.658L106.783 406.705C106.537 407.364 106.109 407.693 105.499 407.693ZM112.634 402.614L112.032 402.784C111.973 402.633 111.875 402.491 111.737 402.358C111.598 402.225 111.382 402.159 111.089 402.159C110.822 402.159 110.599 402.221 110.421 402.344C110.245 402.465 110.157 402.619 110.157 402.807C110.157 402.973 110.218 403.105 110.339 403.202C110.46 403.298 110.649 403.379 110.907 403.443L111.555 403.602C112.327 403.792 112.714 404.186 112.714 404.784C112.714 405.034 112.642 405.258 112.498 405.455C112.356 405.652 112.157 405.807 111.901 405.92C111.646 406.034 111.348 406.091 111.009 406.091C110.564 406.091 110.196 405.994 109.904 405.801C109.612 405.608 109.428 405.326 109.35 404.955L109.987 404.795C110.106 405.265 110.443 405.5 110.998 405.5C111.31 405.5 111.558 405.434 111.742 405.301C111.928 405.167 112.021 405.006 112.021 404.818C112.021 404.509 111.805 404.305 111.373 404.205L110.646 404.034C110.246 403.939 109.952 403.793 109.765 403.594C109.579 403.393 109.487 403.142 109.487 402.841C109.487 402.595 109.556 402.377 109.694 402.188C109.834 401.998 110.024 401.849 110.265 401.741C110.507 401.634 110.782 401.58 111.089 401.58C111.521 401.58 111.86 401.674 112.106 401.864C112.354 402.053 112.53 402.303 112.634 402.614Z" fill="black" fill-opacity="0.4"/>
<path d="M505.339 400.807V400.182H509.703V400.807H507.874V406H507.169V400.807H505.339ZM511.839 406.091C511.446 406.091 511.1 405.997 510.803 405.81C510.507 405.622 510.276 405.36 510.109 405.023C509.945 404.686 509.862 404.292 509.862 403.841C509.862 403.386 509.945 402.99 510.109 402.651C510.276 402.312 510.507 402.048 510.803 401.861C511.1 401.673 511.446 401.58 511.839 401.58C512.233 401.58 512.578 401.673 512.874 401.861C513.171 402.048 513.402 402.312 513.567 402.651C513.733 402.99 513.817 403.386 513.817 403.841C513.817 404.292 513.733 404.686 513.567 405.023C513.402 405.36 513.171 405.622 512.874 405.81C512.578 405.997 512.233 406.091 511.839 406.091ZM511.839 405.489C512.139 405.489 512.385 405.412 512.578 405.259C512.771 405.105 512.914 404.903 513.007 404.653C513.1 404.403 513.146 404.133 513.146 403.841C513.146 403.549 513.1 403.277 513.007 403.026C512.914 402.774 512.771 402.57 512.578 402.415C512.385 402.259 512.139 402.182 511.839 402.182C511.54 402.182 511.294 402.259 511.101 402.415C510.908 402.57 510.765 402.774 510.672 403.026C510.579 403.277 510.533 403.549 510.533 403.841C510.533 404.133 510.579 404.403 510.672 404.653C510.765 404.903 510.908 405.105 511.101 405.259C511.294 405.412 511.54 405.489 511.839 405.489ZM516.488 406.091C516.124 406.091 515.803 405.999 515.525 405.815C515.246 405.63 515.029 405.368 514.871 405.031C514.714 404.692 514.636 404.292 514.636 403.83C514.636 403.371 514.714 402.973 514.871 402.636C515.029 402.299 515.247 402.039 515.528 401.855C515.808 401.671 516.132 401.58 516.499 401.58C516.783 401.58 517.008 401.627 517.173 401.722C517.339 401.814 517.466 401.92 517.553 402.04C517.642 402.157 517.711 402.254 517.761 402.33H517.817V400.182H518.488V406H517.84V405.33H517.761C517.711 405.409 517.641 405.509 517.55 405.631C517.46 405.75 517.33 405.857 517.161 405.952C516.993 406.045 516.768 406.091 516.488 406.091ZM516.579 405.489C516.982 405.489 517.291 405.334 517.505 405.026C517.721 404.715 517.829 404.312 517.829 403.818C517.829 403.33 517.723 402.935 517.511 402.634C517.299 402.332 516.988 402.182 516.579 402.182C516.295 402.182 516.058 402.255 515.869 402.401C515.681 402.545 515.54 402.741 515.445 402.989C515.353 403.235 515.306 403.511 515.306 403.818C515.306 404.129 515.353 404.411 515.448 404.665C515.545 404.917 515.687 405.117 515.874 405.267C516.064 405.415 516.299 405.489 516.579 405.489ZM521.093 406.102C520.817 406.102 520.566 406.05 520.34 405.946C520.115 405.84 519.936 405.688 519.803 405.489C519.671 405.288 519.604 405.045 519.604 404.761C519.604 404.511 519.654 404.309 519.752 404.153C519.851 403.996 519.982 403.873 520.147 403.784C520.312 403.695 520.494 403.629 520.692 403.585C520.893 403.54 521.095 403.504 521.298 403.477C521.563 403.443 521.778 403.418 521.942 403.401C522.109 403.382 522.23 403.35 522.306 403.307C522.384 403.263 522.423 403.187 522.423 403.08V403.057C522.423 402.777 522.346 402.559 522.192 402.403C522.041 402.248 521.811 402.17 521.502 402.17C521.182 402.17 520.931 402.241 520.749 402.381C520.567 402.521 520.44 402.67 520.366 402.83L519.729 402.602C519.843 402.337 519.995 402.131 520.184 401.983C520.375 401.833 520.584 401.729 520.809 401.67C521.036 401.61 521.26 401.58 521.479 401.58C521.62 401.58 521.781 401.597 521.962 401.631C522.146 401.663 522.323 401.73 522.494 401.832C522.666 401.935 522.809 402.089 522.923 402.295C523.036 402.502 523.093 402.778 523.093 403.125V406H522.423V405.409H522.388C522.343 405.504 522.267 405.605 522.161 405.713C522.055 405.821 521.914 405.913 521.738 405.989C521.562 406.064 521.347 406.102 521.093 406.102ZM521.195 405.5C521.46 405.5 521.684 405.448 521.866 405.344C522.049 405.24 522.188 405.105 522.281 404.94C522.375 404.776 522.423 404.602 522.423 404.42V403.807C522.394 403.841 522.332 403.872 522.235 403.901C522.14 403.927 522.031 403.951 521.906 403.972C521.782 403.991 521.662 404.008 521.545 404.023C521.429 404.036 521.335 404.047 521.263 404.057C521.089 404.08 520.926 404.116 520.775 404.168C520.625 404.217 520.504 404.292 520.411 404.392C520.32 404.491 520.275 404.625 520.275 404.795C520.275 405.028 520.361 405.205 520.533 405.324C520.708 405.441 520.928 405.5 521.195 405.5ZM524.57 407.693C524.456 407.693 524.355 407.684 524.266 407.665C524.177 407.648 524.115 407.631 524.081 407.614L524.251 407.023C524.496 407.085 524.699 407.083 524.862 407.017C525.027 406.953 525.168 406.758 525.286 406.432L525.433 406.023L523.82 401.636H524.547L525.751 405.114H525.797L527.001 401.636H527.729L525.854 406.705C525.607 407.364 525.179 407.693 524.57 407.693Z" fill="black" fill-opacity="0.4"/>
<path d="M211.409 408H210.486L213.157 400.727H214.066L216.736 408H215.813L215.081 405.94H212.141L211.409 408ZM212.418 405.159H214.804L213.64 401.878H213.583L212.418 405.159ZM222.94 402.545V403.256H221.775V406.438C221.775 406.674 221.81 406.852 221.878 406.97C221.949 407.086 222.039 407.164 222.148 407.205C222.259 407.242 222.377 407.261 222.5 407.261C222.592 407.261 222.668 407.257 222.727 407.247C222.786 407.235 222.833 407.226 222.869 407.219L223.039 407.972C222.983 407.993 222.903 408.014 222.801 408.036C222.7 408.059 222.571 408.071 222.414 408.071C222.178 408.071 221.946 408.02 221.718 407.918C221.493 407.817 221.306 407.661 221.157 407.453C221.011 407.245 220.937 406.982 220.937 406.665V403.256H220.113V402.545H220.937V401.239H221.775V402.545H222.94ZM225.156 404.719V408H224.318V400.727H225.156V403.398H225.227C225.355 403.116 225.547 402.892 225.802 402.727C226.06 402.558 226.404 402.474 226.832 402.474C227.391 402.474 227.841 402.643 228.181 402.979C228.522 403.315 228.693 403.833 228.693 404.534V408H227.855V404.591C227.855 404.158 227.742 403.823 227.517 403.586C227.295 403.347 226.986 403.227 226.591 403.227C226.176 403.227 225.833 403.357 225.561 403.618C225.291 403.876 225.156 404.243 225.156 404.719ZM230.226 408V402.545H231.064V408H230.226ZM230.652 401.636C230.489 401.636 230.348 401.581 230.23 401.469C230.114 401.358 230.056 401.224 230.056 401.068C230.056 400.912 230.114 400.778 230.23 400.667C230.348 400.556 230.489 400.5 230.652 400.5C230.816 400.5 230.955 400.556 231.071 400.667C231.19 400.778 231.249 400.912 231.249 401.068C231.249 401.224 231.19 401.358 231.071 401.469C230.955 401.581 230.816 401.636 230.652 401.636ZM232.599 408V402.545H233.409V403.369H233.466C233.563 403.099 233.741 402.88 234.002 402.712C234.262 402.544 234.557 402.46 234.886 402.46C235.038 402.46 235.17 402.478 235.284 402.513C235.397 402.549 235.497 402.598 235.582 402.659L235.298 403.369C235.239 403.339 235.169 403.315 235.088 403.298C235.01 403.279 234.919 403.27 234.815 403.27C234.417 403.27 234.088 403.392 233.828 403.636C233.567 403.877 233.437 404.181 233.437 404.548V408H232.599ZM238.331 408.114C237.876 408.114 237.475 407.999 237.127 407.769C236.779 407.537 236.507 407.21 236.31 406.789C236.114 406.365 236.015 405.865 236.015 405.287C236.015 404.714 236.114 404.217 236.31 403.795C236.507 403.374 236.78 403.049 237.13 402.819C237.481 402.589 237.886 402.474 238.345 402.474C238.7 402.474 238.98 402.534 239.186 402.652C239.395 402.768 239.553 402.901 239.662 403.05C239.774 403.196 239.86 403.317 239.922 403.412H239.993V400.727H240.831V408H240.021V407.162H239.922C239.86 407.261 239.772 407.387 239.659 407.538C239.545 407.687 239.383 407.821 239.172 407.94C238.962 408.056 238.681 408.114 238.331 408.114ZM238.444 407.361C238.949 407.361 239.334 407.168 239.602 406.782C239.872 406.394 240.007 405.891 240.007 405.273C240.007 404.662 239.874 404.168 239.609 403.792C239.344 403.415 238.956 403.227 238.444 403.227C238.089 403.227 237.793 403.318 237.556 403.501C237.322 403.681 237.146 403.926 237.027 404.236C236.911 404.544 236.853 404.889 236.853 405.273C236.853 405.661 236.913 406.014 237.031 406.331C237.152 406.646 237.329 406.897 237.564 407.084C237.8 407.268 238.094 407.361 238.444 407.361ZM245.294 410.045V402.545H246.104V403.412H246.203C246.265 403.317 246.35 403.196 246.459 403.05C246.57 402.901 246.729 402.768 246.935 402.652C247.143 402.534 247.425 402.474 247.78 402.474C248.239 402.474 248.644 402.589 248.995 402.819C249.345 403.049 249.618 403.374 249.815 403.795C250.011 404.217 250.11 404.714 250.11 405.287C250.11 405.865 250.011 406.365 249.815 406.789C249.618 407.21 249.346 407.537 248.998 407.769C248.65 407.999 248.249 408.114 247.794 408.114C247.444 408.114 247.163 408.056 246.953 407.94C246.742 407.821 246.58 407.687 246.466 407.538C246.353 407.387 246.265 407.261 246.203 407.162H246.132V410.045H245.294ZM246.118 405.273C246.118 405.891 246.252 406.394 246.52 406.782C246.789 407.168 247.176 407.361 247.681 407.361C248.031 407.361 248.324 407.268 248.558 407.084C248.795 406.897 248.972 406.646 249.091 406.331C249.211 406.014 249.272 405.661 249.272 405.273C249.272 404.889 249.212 404.544 249.094 404.236C248.978 403.926 248.802 403.681 248.565 403.501C248.331 403.318 248.036 403.227 247.681 403.227C247.169 403.227 246.781 403.415 246.516 403.792C246.251 404.168 246.118 404.662 246.118 405.273ZM252.993 408.128C252.648 408.128 252.334 408.063 252.052 407.933C251.77 407.8 251.547 407.609 251.381 407.361C251.215 407.11 251.132 406.807 251.132 406.452C251.132 406.139 251.194 405.886 251.317 405.692C251.44 405.495 251.605 405.341 251.811 405.23C252.017 405.119 252.244 405.036 252.493 404.982C252.743 404.925 252.996 404.88 253.249 404.847C253.58 404.804 253.849 404.772 254.055 404.751C254.263 404.727 254.415 404.688 254.51 404.634C254.607 404.579 254.655 404.484 254.655 404.349V404.321C254.655 403.971 254.559 403.698 254.368 403.504C254.178 403.31 253.891 403.213 253.505 403.213C253.105 403.213 252.791 403.301 252.564 403.476C252.336 403.651 252.176 403.838 252.084 404.037L251.289 403.753C251.431 403.421 251.62 403.163 251.857 402.979C252.096 402.792 252.356 402.661 252.638 402.588C252.922 402.512 253.202 402.474 253.476 402.474C253.651 402.474 253.853 402.496 254.08 402.538C254.31 402.579 254.531 402.663 254.744 402.79C254.959 402.918 255.138 403.111 255.28 403.369C255.422 403.627 255.493 403.973 255.493 404.406V408H254.655V407.261H254.613C254.556 407.38 254.461 407.506 254.328 407.641C254.196 407.776 254.02 407.891 253.799 407.986C253.579 408.08 253.31 408.128 252.993 408.128ZM253.121 407.375C253.453 407.375 253.732 407.31 253.959 407.18C254.189 407.049 254.362 406.881 254.478 406.675C254.596 406.469 254.655 406.253 254.655 406.026V405.259C254.62 405.301 254.542 405.34 254.421 405.376C254.302 405.409 254.165 405.438 254.009 405.464C253.855 405.488 253.705 405.509 253.558 405.528C253.413 405.545 253.296 405.559 253.206 405.571C252.989 405.599 252.785 405.646 252.596 405.71C252.408 405.771 252.257 405.865 252.141 405.99C252.027 406.113 251.971 406.281 251.971 406.494C251.971 406.786 252.078 407.006 252.294 407.155C252.511 407.302 252.787 407.375 253.121 407.375ZM257.023 408V402.545H257.833V403.369H257.889C257.989 403.099 258.169 402.88 258.429 402.712C258.69 402.544 258.983 402.46 259.31 402.46C259.371 402.46 259.448 402.461 259.541 402.464C259.633 402.466 259.703 402.47 259.75 402.474V403.327C259.722 403.32 259.657 403.309 259.555 403.295C259.455 403.278 259.35 403.27 259.239 403.27C258.841 403.27 258.512 403.391 258.252 403.632C257.991 403.874 257.861 404.179 257.861 404.548V408H257.023ZM263.458 402.545V403.256H262.293V406.438C262.293 406.674 262.327 406.852 262.396 406.97C262.467 407.086 262.557 407.164 262.666 407.205C262.777 407.242 262.894 407.261 263.017 407.261C263.11 407.261 263.185 407.257 263.244 407.247C263.304 407.235 263.351 407.226 263.387 407.219L263.557 407.972C263.5 407.993 263.421 408.014 263.319 408.036C263.217 408.059 263.088 408.071 262.932 408.071C262.695 408.071 262.463 408.02 262.236 407.918C262.011 407.817 261.824 407.661 261.675 407.453C261.528 407.245 261.455 406.982 261.455 406.665V403.256H260.631V402.545H261.455V401.239H262.293V402.545H263.458ZM265.23 410.116C265.088 410.116 264.961 410.105 264.85 410.081C264.738 410.06 264.661 410.038 264.619 410.017L264.832 409.278C265.137 409.357 265.392 409.354 265.595 409.271C265.801 409.191 265.978 408.947 266.124 408.54L266.309 408.028L264.292 402.545H265.201L266.707 406.892H266.764L268.269 402.545H269.178L266.835 408.881C266.527 409.705 265.992 410.116 265.23 410.116ZM274.702 408.128C274.357 408.128 274.043 408.063 273.761 407.933C273.479 407.8 273.256 407.609 273.09 407.361C272.924 407.11 272.841 406.807 272.841 406.452C272.841 406.139 272.903 405.886 273.026 405.692C273.149 405.495 273.314 405.341 273.52 405.23C273.726 405.119 273.953 405.036 274.202 404.982C274.452 404.925 274.705 404.88 274.958 404.847C275.289 404.804 275.558 404.772 275.764 404.751C275.972 404.727 276.124 404.688 276.219 404.634C276.316 404.579 276.364 404.484 276.364 404.349V404.321C276.364 403.971 276.268 403.698 276.077 403.504C275.887 403.31 275.599 403.213 275.214 403.213C274.814 403.213 274.5 403.301 274.273 403.476C274.045 403.651 273.885 403.838 273.793 404.037L272.998 403.753C273.14 403.421 273.329 403.163 273.566 402.979C273.805 402.792 274.065 402.661 274.347 402.588C274.631 402.512 274.911 402.474 275.185 402.474C275.36 402.474 275.562 402.496 275.789 402.538C276.019 402.579 276.24 402.663 276.453 402.79C276.668 402.918 276.847 403.111 276.989 403.369C277.131 403.627 277.202 403.973 277.202 404.406V408H276.364V407.261H276.322C276.265 407.38 276.17 407.506 276.037 407.641C275.905 407.776 275.729 407.891 275.508 407.986C275.288 408.08 275.019 408.128 274.702 408.128ZM274.83 407.375C275.162 407.375 275.441 407.31 275.668 407.18C275.898 407.049 276.071 406.881 276.187 406.675C276.305 406.469 276.364 406.253 276.364 406.026V405.259C276.329 405.301 276.251 405.34 276.13 405.376C276.011 405.409 275.874 405.438 275.718 405.464C275.564 405.488 275.414 405.509 275.267 405.528C275.122 405.545 275.005 405.559 274.915 405.571C274.698 405.599 274.494 405.646 274.305 405.71C274.117 405.771 273.966 405.865 273.85 405.99C273.736 406.113 273.68 406.281 273.68 406.494C273.68 406.786 273.787 407.006 274.003 407.155C274.22 407.302 274.496 407.375 274.83 407.375ZM278.732 410.045V402.545H279.542V403.412H279.641C279.703 403.317 279.788 403.196 279.897 403.05C280.008 402.901 280.167 402.768 280.373 402.652C280.581 402.534 280.863 402.474 281.218 402.474C281.677 402.474 282.082 402.589 282.432 402.819C282.783 403.049 283.056 403.374 283.252 403.795C283.449 404.217 283.547 404.714 283.547 405.287C283.547 405.865 283.449 406.365 283.252 406.789C283.056 407.21 282.784 407.537 282.436 407.769C282.088 407.999 281.686 408.114 281.232 408.114C280.882 408.114 280.601 408.056 280.39 407.94C280.18 407.821 280.017 407.687 279.904 407.538C279.79 407.387 279.703 407.261 279.641 407.162H279.57V410.045H278.732ZM279.556 405.273C279.556 405.891 279.69 406.394 279.957 406.782C280.227 407.168 280.614 407.361 281.118 407.361C281.469 407.361 281.761 407.268 281.995 407.084C282.232 406.897 282.41 406.646 282.528 406.331C282.649 406.014 282.709 405.661 282.709 405.273C282.709 404.889 282.65 404.544 282.532 404.236C282.416 403.926 282.239 403.681 282.002 403.501C281.768 403.318 281.473 403.227 281.118 403.227C280.607 403.227 280.219 403.415 279.953 403.792C279.688 404.168 279.556 404.662 279.556 405.273ZM284.826 410.045V402.545H285.635V403.412H285.735C285.796 403.317 285.882 403.196 285.99 403.05C286.102 402.901 286.26 402.768 286.466 402.652C286.675 402.534 286.956 402.474 287.311 402.474C287.771 402.474 288.176 402.589 288.526 402.819C288.876 403.049 289.15 403.374 289.346 403.795C289.543 404.217 289.641 404.714 289.641 405.287C289.641 405.865 289.543 406.365 289.346 406.789C289.15 407.21 288.877 407.537 288.529 407.769C288.181 407.999 287.78 408.114 287.326 408.114C286.975 408.114 286.695 408.056 286.484 407.94C286.273 407.821 286.111 407.687 285.998 407.538C285.884 407.387 285.796 407.261 285.735 407.162H285.664V410.045H284.826ZM285.65 405.273C285.65 405.891 285.783 406.394 286.051 406.782C286.321 407.168 286.708 407.361 287.212 407.361C287.562 407.361 287.855 407.268 288.089 407.084C288.326 406.897 288.503 406.646 288.622 406.331C288.743 406.014 288.803 405.661 288.803 405.273C288.803 404.889 288.744 404.544 288.625 404.236C288.509 403.926 288.333 403.681 288.096 403.501C287.862 403.318 287.567 403.227 287.212 403.227C286.701 403.227 286.312 403.415 286.047 403.792C285.782 404.168 285.65 404.662 285.65 405.273ZM293.732 408V402.545H294.57V408H293.732ZM294.158 401.636C293.995 401.636 293.854 401.581 293.735 401.469C293.619 401.358 293.561 401.224 293.561 401.068C293.561 400.912 293.619 400.778 293.735 400.667C293.854 400.556 293.995 400.5 294.158 400.5C294.321 400.5 294.461 400.556 294.577 400.667C294.695 400.778 294.755 400.912 294.755 401.068C294.755 401.224 294.695 401.358 294.577 401.469C294.461 401.581 294.321 401.636 294.158 401.636ZM299.969 403.767L299.216 403.98C299.142 403.791 299.019 403.613 298.846 403.447C298.674 403.282 298.404 403.199 298.037 403.199C297.703 403.199 297.425 403.276 297.202 403.43C296.982 403.581 296.872 403.774 296.872 404.009C296.872 404.217 296.948 404.381 297.099 404.502C297.251 404.623 297.488 404.723 297.809 404.804L298.619 405.003C299.585 405.24 300.068 405.732 300.068 406.48C300.068 406.793 299.978 407.072 299.798 407.318C299.621 407.564 299.372 407.759 299.052 407.901C298.733 408.043 298.361 408.114 297.937 408.114C297.381 408.114 296.921 407.993 296.556 407.751C296.191 407.51 295.961 407.157 295.863 406.693L296.659 406.494C296.808 407.081 297.229 407.375 297.923 407.375C298.314 407.375 298.624 407.292 298.854 407.126C299.086 406.958 299.202 406.757 299.202 406.523C299.202 406.137 298.932 405.881 298.392 405.756L297.483 405.543C296.983 405.424 296.616 405.241 296.382 404.992C296.15 404.741 296.034 404.428 296.034 404.051C296.034 403.743 296.12 403.471 296.293 403.234C296.468 402.998 296.706 402.812 297.007 402.677C297.31 402.542 297.653 402.474 298.037 402.474C298.577 402.474 299 402.593 299.308 402.83C299.618 403.066 299.838 403.379 299.969 403.767ZM306.358 408.114C305.847 408.114 305.406 407.993 305.037 407.751C304.668 407.51 304.384 407.177 304.185 406.754C303.986 406.33 303.886 405.846 303.886 405.301C303.886 404.747 303.988 404.258 304.192 403.835C304.398 403.408 304.684 403.076 305.051 402.837C305.42 402.595 305.851 402.474 306.344 402.474C306.727 402.474 307.073 402.545 307.381 402.688C307.688 402.83 307.941 403.028 308.137 403.284C308.334 403.54 308.455 403.838 308.503 404.179H307.665C307.601 403.93 307.459 403.71 307.239 403.518C307.021 403.324 306.727 403.227 306.358 403.227C305.868 403.227 305.473 403.414 305.172 403.788C304.874 404.16 304.724 404.655 304.724 405.273C304.724 405.905 304.872 406.411 305.168 406.793C305.464 407.171 305.861 407.361 306.358 407.361C306.685 407.361 306.964 407.277 307.196 407.109C307.43 406.941 307.587 406.707 307.665 406.409H308.503C308.455 406.731 308.338 407.021 308.151 407.279C307.967 407.535 307.722 407.738 307.416 407.89C307.113 408.039 306.76 408.114 306.358 408.114ZM311.333 408.128C310.987 408.128 310.674 408.063 310.392 407.933C310.11 407.8 309.887 407.609 309.721 407.361C309.555 407.11 309.472 406.807 309.472 406.452C309.472 406.139 309.534 405.886 309.657 405.692C309.78 405.495 309.945 405.341 310.151 405.23C310.357 405.119 310.584 405.036 310.832 404.982C311.083 404.925 311.335 404.88 311.589 404.847C311.92 404.804 312.189 404.772 312.395 404.751C312.603 404.727 312.755 404.688 312.849 404.634C312.946 404.579 312.995 404.484 312.995 404.349V404.321C312.995 403.971 312.899 403.698 312.707 403.504C312.518 403.31 312.23 403.213 311.844 403.213C311.444 403.213 311.131 403.301 310.903 403.476C310.676 403.651 310.516 403.838 310.424 404.037L309.629 403.753C309.771 403.421 309.96 403.163 310.197 402.979C310.436 402.792 310.696 402.661 310.978 402.588C311.262 402.512 311.541 402.474 311.816 402.474C311.991 402.474 312.192 402.496 312.42 402.538C312.649 402.579 312.871 402.663 313.084 402.79C313.299 402.918 313.478 403.111 313.62 403.369C313.762 403.627 313.833 403.973 313.833 404.406V408H312.995V407.261H312.952C312.896 407.38 312.801 407.506 312.668 407.641C312.536 407.776 312.359 407.891 312.139 407.986C311.919 408.08 311.65 408.128 311.333 408.128ZM311.461 407.375C311.792 407.375 312.072 407.31 312.299 407.18C312.529 407.049 312.701 406.881 312.817 406.675C312.936 406.469 312.995 406.253 312.995 406.026V405.259C312.96 405.301 312.881 405.34 312.761 405.376C312.642 405.409 312.505 405.438 312.349 405.464C312.195 405.488 312.045 405.509 311.898 405.528C311.753 405.545 311.636 405.559 311.546 405.571C311.328 405.599 311.125 405.646 310.935 405.71C310.748 405.771 310.597 405.865 310.481 405.99C310.367 406.113 310.31 406.281 310.31 406.494C310.31 406.786 310.418 407.006 310.634 407.155C310.851 407.302 311.127 407.375 311.461 407.375ZM316.201 400.727V408H315.363V400.727H316.201ZM319.952 408.114C319.44 408.114 319 407.993 318.631 407.751C318.261 407.51 317.977 407.177 317.778 406.754C317.58 406.33 317.48 405.846 317.48 405.301C317.48 404.747 317.582 404.258 317.786 403.835C317.991 403.408 318.278 403.076 318.645 402.837C319.014 402.595 319.445 402.474 319.938 402.474C320.321 402.474 320.667 402.545 320.974 402.688C321.282 402.83 321.534 403.028 321.731 403.284C321.927 403.54 322.049 403.838 322.097 404.179H321.259C321.195 403.93 321.053 403.71 320.832 403.518C320.615 403.324 320.321 403.227 319.952 403.227C319.462 403.227 319.066 403.414 318.766 403.788C318.467 404.16 318.318 404.655 318.318 405.273C318.318 405.905 318.466 406.411 318.762 406.793C319.058 407.171 319.455 407.361 319.952 407.361C320.278 407.361 320.558 407.277 320.79 407.109C321.024 406.941 321.18 406.707 321.259 406.409H322.097C322.049 406.731 321.932 407.021 321.745 407.279C321.56 407.535 321.315 407.738 321.01 407.89C320.707 408.039 320.354 408.114 319.952 408.114ZM326.759 405.77V402.545H327.597V408H326.759V407.077H326.702C326.575 407.354 326.376 407.589 326.106 407.783C325.836 407.975 325.495 408.071 325.083 408.071C324.572 408.071 324.15 407.902 323.819 407.563C323.487 407.225 323.322 406.707 323.322 406.011V402.545H324.16V405.955C324.16 406.352 324.271 406.67 324.494 406.906C324.719 407.143 325.005 407.261 325.353 407.261C325.561 407.261 325.773 407.208 325.989 407.102C326.206 406.995 326.389 406.832 326.536 406.612C326.685 406.391 326.759 406.111 326.759 405.77ZM329.97 400.727V408H329.132V400.727H329.97ZM333.11 408.128C332.765 408.128 332.451 408.063 332.169 407.933C331.888 407.8 331.664 407.609 331.498 407.361C331.333 407.11 331.25 406.807 331.25 406.452C331.25 406.139 331.311 405.886 331.434 405.692C331.557 405.495 331.722 405.341 331.928 405.23C332.134 405.119 332.361 405.036 332.61 404.982C332.861 404.925 333.113 404.88 333.366 404.847C333.698 404.804 333.966 404.772 334.172 404.751C334.381 404.727 334.532 404.688 334.627 404.634C334.724 404.579 334.772 404.484 334.772 404.349V404.321C334.772 403.971 334.676 403.698 334.485 403.504C334.295 403.31 334.008 403.213 333.622 403.213C333.222 403.213 332.908 403.301 332.681 403.476C332.453 403.651 332.294 403.838 332.201 404.037L331.406 403.753C331.548 403.421 331.737 403.163 331.974 402.979C332.213 402.792 332.474 402.661 332.755 402.588C333.039 402.512 333.319 402.474 333.593 402.474C333.769 402.474 333.97 402.496 334.197 402.538C334.427 402.579 334.648 402.663 334.861 402.79C335.077 402.918 335.255 403.111 335.397 403.369C335.539 403.627 335.61 403.973 335.61 404.406V408H334.772V407.261H334.73C334.673 407.38 334.578 407.506 334.446 407.641C334.313 407.776 334.137 407.891 333.917 407.986C333.696 408.08 333.428 408.128 333.11 408.128ZM333.238 407.375C333.57 407.375 333.849 407.31 334.076 407.18C334.306 407.049 334.479 406.881 334.595 406.675C334.713 406.469 334.772 406.253 334.772 406.026V405.259C334.737 405.301 334.659 405.34 334.538 405.376C334.42 405.409 334.282 405.438 334.126 405.464C333.972 405.488 333.822 405.509 333.675 405.528C333.531 405.545 333.413 405.559 333.324 405.571C333.106 405.599 332.902 405.646 332.713 405.71C332.526 405.771 332.374 405.865 332.258 405.99C332.145 406.113 332.088 406.281 332.088 406.494C332.088 406.786 332.195 407.006 332.411 407.155C332.629 407.302 332.904 407.375 333.238 407.375ZM339.512 402.545V403.256H338.347V406.438C338.347 406.674 338.382 406.852 338.45 406.97C338.521 407.086 338.611 407.164 338.72 407.205C338.832 407.242 338.949 407.261 339.072 407.261C339.164 407.261 339.24 407.257 339.299 407.247C339.358 407.235 339.406 407.226 339.441 407.219L339.612 407.972C339.555 407.993 339.476 408.014 339.374 408.036C339.272 408.059 339.143 408.071 338.987 408.071C338.75 408.071 338.518 408.02 338.291 407.918C338.066 407.817 337.879 407.661 337.73 407.453C337.583 407.245 337.509 406.982 337.509 406.665V403.256H336.686V402.545H337.509V401.239H338.347V402.545H339.512ZM340.773 408V402.545H341.611V408H340.773ZM341.199 401.636C341.036 401.636 340.895 401.581 340.776 401.469C340.66 401.358 340.602 401.224 340.602 401.068C340.602 400.912 340.66 400.778 340.776 400.667C340.895 400.556 341.036 400.5 341.199 400.5C341.362 400.5 341.502 400.556 341.618 400.667C341.736 400.778 341.796 400.912 341.796 401.068C341.796 401.224 341.736 401.358 341.618 401.469C341.502 401.581 341.362 401.636 341.199 401.636ZM343.984 404.719V408H343.146V402.545H343.956V403.398H344.027C344.154 403.121 344.349 402.898 344.609 402.73C344.869 402.56 345.206 402.474 345.618 402.474C346.169 402.474 346.614 402.644 346.953 402.982C347.294 403.321 347.464 403.838 347.464 404.534V408H346.626V404.591C346.626 404.162 346.515 403.829 346.292 403.589C346.07 403.348 345.764 403.227 345.376 403.227C344.976 403.227 344.643 403.357 344.378 403.618C344.115 403.876 343.984 404.243 343.984 404.719ZM351.197 410.159C350.589 410.159 350.107 410.048 349.752 409.825C349.399 409.605 349.138 409.352 348.967 409.065L349.635 408.597C349.711 408.696 349.806 408.81 349.922 408.938C350.038 409.068 350.197 409.18 350.398 409.275C350.602 409.372 350.868 409.42 351.197 409.42C351.638 409.42 352.001 409.314 352.287 409.101C352.574 408.888 352.717 408.554 352.717 408.099V406.991H352.646C352.585 407.091 352.497 407.214 352.383 407.361C352.272 407.505 352.111 407.634 351.9 407.748C351.692 407.859 351.41 407.915 351.055 407.915C350.615 407.915 350.22 407.811 349.869 407.602C349.521 407.394 349.245 407.091 349.042 406.693C348.84 406.295 348.74 405.812 348.74 405.244C348.74 404.686 348.838 404.199 349.035 403.785C349.231 403.368 349.505 403.046 349.855 402.819C350.205 402.589 350.61 402.474 351.069 402.474C351.425 402.474 351.706 402.534 351.915 402.652C352.125 402.768 352.286 402.901 352.398 403.05C352.511 403.196 352.599 403.317 352.66 403.412H352.746V402.545H353.555V408.156C353.555 408.625 353.449 409.006 353.236 409.3C353.025 409.596 352.741 409.812 352.383 409.95C352.028 410.089 351.633 410.159 351.197 410.159ZM351.169 407.162C351.673 407.162 352.059 406.991 352.327 406.651C352.596 406.307 352.731 405.834 352.731 405.23C352.731 404.641 352.599 404.16 352.334 403.788C352.068 403.414 351.68 403.227 351.169 403.227C350.814 403.227 350.518 403.317 350.281 403.497C350.047 403.677 349.87 403.919 349.752 404.222C349.636 404.525 349.578 404.861 349.578 405.23C349.578 405.798 349.712 406.262 349.979 406.622C350.247 406.982 350.643 407.162 351.169 407.162ZM361.339 405.77V402.545H362.177V408H361.339V407.077H361.282C361.155 407.354 360.956 407.589 360.686 407.783C360.416 407.975 360.075 408.071 359.663 408.071C359.152 408.071 358.73 407.902 358.399 407.563C358.068 407.225 357.902 406.707 357.902 406.011V402.545H358.74V405.955C358.74 406.352 358.851 406.67 359.074 406.906C359.299 407.143 359.585 407.261 359.933 407.261C360.141 407.261 360.353 407.208 360.569 407.102C360.787 406.995 360.969 406.832 361.116 406.612C361.265 406.391 361.339 406.111 361.339 405.77ZM363.712 410.045V402.545H364.522V403.412H364.621C364.683 403.317 364.768 403.196 364.877 403.05C364.988 402.901 365.147 402.768 365.353 402.652C365.561 402.534 365.843 402.474 366.198 402.474C366.657 402.474 367.062 402.589 367.413 402.819C367.763 403.049 368.036 403.374 368.233 403.795C368.429 404.217 368.528 404.714 368.528 405.287C368.528 405.865 368.429 406.365 368.233 406.789C368.036 407.21 367.764 407.537 367.416 407.769C367.068 407.999 366.667 408.114 366.212 408.114C365.862 408.114 365.581 408.056 365.371 407.94C365.16 407.821 364.998 407.687 364.884 407.538C364.771 407.387 364.683 407.261 364.621 407.162H364.55V410.045H363.712ZM364.536 405.273C364.536 405.891 364.67 406.394 364.938 406.782C365.207 407.168 365.594 407.361 366.099 407.361C366.449 407.361 366.741 407.268 366.976 407.084C367.213 406.897 367.39 406.646 367.509 406.331C367.629 406.014 367.69 405.661 367.69 405.273C367.69 404.889 367.63 404.544 367.512 404.236C367.396 403.926 367.22 403.681 366.983 403.501C366.749 403.318 366.454 403.227 366.099 403.227C365.587 403.227 365.199 403.415 364.934 403.792C364.669 404.168 364.536 404.662 364.536 405.273ZM372.178 402.545V403.256H371.013V406.438C371.013 406.674 371.048 406.852 371.116 406.97C371.188 407.086 371.277 407.164 371.386 407.205C371.498 407.242 371.615 407.261 371.738 407.261C371.83 407.261 371.906 407.257 371.965 407.247C372.024 407.235 372.072 407.226 372.107 407.219L372.278 407.972C372.221 407.993 372.142 408.014 372.04 408.036C371.938 408.059 371.809 408.071 371.653 408.071C371.416 408.071 371.184 408.02 370.957 407.918C370.732 407.817 370.545 407.661 370.396 407.453C370.249 407.245 370.175 406.982 370.175 406.665V403.256H369.352V402.545H370.175V401.239H371.013V402.545H372.178ZM373.439 408V402.545H374.277V408H373.439ZM373.865 401.636C373.702 401.636 373.561 401.581 373.442 401.469C373.326 401.358 373.268 401.224 373.268 401.068C373.268 400.912 373.326 400.778 373.442 400.667C373.561 400.556 373.702 400.5 373.865 400.5C374.028 400.5 374.168 400.556 374.284 400.667C374.402 400.778 374.462 400.912 374.462 401.068C374.462 401.224 374.402 401.358 374.284 401.469C374.168 401.581 374.028 401.636 373.865 401.636ZM375.812 408V402.545H376.622V403.398H376.693C376.806 403.107 376.99 402.88 377.243 402.719C377.496 402.556 377.801 402.474 378.156 402.474C378.516 402.474 378.815 402.556 379.054 402.719C379.296 402.88 379.484 403.107 379.619 403.398H379.676C379.815 403.116 380.025 402.892 380.304 402.727C380.584 402.558 380.919 402.474 381.309 402.474C381.797 402.474 382.196 402.627 382.506 402.933C382.816 403.236 382.971 403.708 382.971 404.349V408H382.133V404.349C382.133 403.947 382.023 403.659 381.803 403.487C381.583 403.314 381.323 403.227 381.025 403.227C380.642 403.227 380.344 403.343 380.134 403.575C379.923 403.805 379.818 404.096 379.818 404.449V408H378.965V404.264C378.965 403.954 378.865 403.704 378.664 403.515C378.462 403.323 378.203 403.227 377.886 403.227C377.668 403.227 377.464 403.285 377.275 403.401C377.088 403.517 376.936 403.678 376.82 403.884C376.707 404.088 376.65 404.323 376.65 404.591V408H375.812ZM386.79 408.114C386.265 408.114 385.811 407.998 385.43 407.766C385.051 407.531 384.759 407.205 384.553 406.786C384.349 406.364 384.248 405.874 384.248 405.315C384.248 404.757 384.349 404.264 384.553 403.838C384.759 403.41 385.046 403.076 385.412 402.837C385.782 402.595 386.213 402.474 386.705 402.474C386.989 402.474 387.27 402.522 387.547 402.616C387.824 402.711 388.076 402.865 388.303 403.078C388.53 403.289 388.711 403.568 388.846 403.916C388.981 404.264 389.049 404.693 389.049 405.202V405.557H385.089C385.108 406.139 385.273 406.585 385.583 406.896C385.895 407.206 386.298 407.361 386.79 407.361C387.119 407.361 387.402 407.29 387.639 407.148C387.876 407.006 388.047 406.793 388.154 406.509L388.964 406.736C388.836 407.148 388.58 407.48 388.197 407.734C387.813 407.987 387.344 408.114 386.79 408.114ZM385.089 404.832H388.197C388.197 404.371 388.062 403.988 387.792 403.685C387.522 403.38 387.16 403.227 386.705 403.227C386.385 403.227 386.108 403.302 385.874 403.451C385.64 403.6 385.455 403.798 385.32 404.044C385.185 404.288 385.108 404.551 385.089 404.832ZM390.934 408.057C390.759 408.057 390.609 407.994 390.483 407.869C390.358 407.743 390.295 407.593 390.295 407.418C390.295 407.242 390.358 407.092 390.483 406.967C390.609 406.841 390.759 406.778 390.934 406.778C391.11 406.778 391.26 406.841 391.385 406.967C391.511 407.092 391.574 407.242 391.574 407.418C391.574 407.593 391.511 407.743 391.385 407.869C391.26 407.994 391.11 408.057 390.934 408.057ZM393.662 408.057C393.487 408.057 393.336 407.994 393.211 407.869C393.085 407.743 393.023 407.593 393.023 407.418C393.023 407.242 393.085 407.092 393.211 406.967C393.336 406.841 393.487 406.778 393.662 406.778C393.837 406.778 393.987 406.841 394.113 406.967C394.238 407.092 394.301 407.242 394.301 407.418C394.301 407.593 394.238 407.743 394.113 407.869C393.987 407.994 393.837 408.057 393.662 408.057ZM396.389 408.057C396.214 408.057 396.064 407.994 395.938 407.869C395.813 407.743 395.75 407.593 395.75 407.418C395.75 407.242 395.813 407.092 395.938 406.967C396.064 406.841 396.214 406.778 396.389 406.778C396.564 406.778 396.715 406.841 396.84 406.967C396.965 407.092 397.028 407.242 397.028 407.418C397.028 407.593 396.965 407.743 396.84 407.869C396.715 407.994 396.564 408.057 396.389 408.057Z" fill="black" fill-opacity="0.6"/>
<g filter="url(#filter2_d)">
<rect x="63" y="16" width="480" height="128" fill="#001739"/>
</g>
<path d="M246.703 95.6923C244.271 95.6923 242.088 95.1795 240.154 94.1539C238.22 93.1282 236.711 91.707 235.626 89.8901C234.542 88.044 234 85.9634 234 83.6484C234 81.3333 234.542 79.2674 235.626 77.4506C236.711 75.6337 238.205 74.2125 240.11 73.1868C242.044 72.1612 244.242 71.6484 246.703 71.6484C249.018 71.6484 251.04 72.1172 252.769 73.055C254.527 73.9927 255.846 75.3407 256.725 77.0989L252.505 79.5604C251.832 78.4762 250.982 77.6703 249.956 77.1429C248.96 76.5861 247.861 76.3077 246.659 76.3077C244.608 76.3077 242.908 76.9817 241.56 78.3297C240.212 79.6484 239.538 81.4213 239.538 83.6484C239.538 85.8755 240.198 87.663 241.516 89.011C242.864 90.3297 244.579 90.989 246.659 90.989C247.861 90.989 248.96 90.7253 249.956 90.1978C250.982 89.641 251.832 88.8205 252.505 87.7363L256.725 90.1978C255.817 91.9561 254.484 93.3187 252.725 94.2857C250.996 95.2234 248.989 95.6923 246.703 95.6923Z" fill="#FF2F56"/>
<path d="M270.002 96C267.512 96 265.094 95.6923 262.75 95.0769C260.405 94.4615 258.501 93.641 257.035 92.6154L259.893 86.1978C261.27 87.1062 262.867 87.8388 264.684 88.3956C266.501 88.9524 268.288 89.2308 270.046 89.2308C273.387 89.2308 275.057 88.3956 275.057 86.7253C275.057 85.8462 274.574 85.2015 273.607 84.7912C272.669 84.3516 271.145 83.8974 269.035 83.4286C266.72 82.9304 264.786 82.4029 263.233 81.8462C261.68 81.2601 260.347 80.337 259.233 79.0769C258.12 77.8168 257.563 76.1172 257.563 73.978C257.563 72.1026 258.076 70.4176 259.101 68.9231C260.127 67.3993 261.651 66.1978 263.673 65.3187C265.724 64.4396 268.23 64 271.189 64C273.211 64 275.204 64.2344 277.167 64.7033C279.131 65.1429 280.86 65.8022 282.354 66.6813L279.673 73.1429C276.742 71.5604 273.9 70.7692 271.145 70.7692C269.416 70.7692 268.156 71.033 267.365 71.5604C266.574 72.0586 266.178 72.7179 266.178 73.5385C266.178 74.359 266.647 74.9744 267.585 75.3846C268.523 75.7949 270.032 76.2198 272.112 76.6593C274.457 77.1575 276.391 77.6996 277.915 78.2857C279.468 78.8425 280.801 79.7509 281.915 81.011C283.057 82.2418 283.629 83.9267 283.629 86.0659C283.629 87.9121 283.116 89.5824 282.09 91.0769C281.065 92.5714 279.526 93.7729 277.475 94.6813C275.424 95.5604 272.933 96 270.002 96ZM301.495 94.4176C300.792 94.8571 299.927 95.1941 298.902 95.4286C297.905 95.663 296.836 95.7802 295.693 95.7802C292.587 95.7802 290.199 95.0183 288.528 93.4945C286.858 91.9707 286.023 89.6996 286.023 86.6813V78.6813H282.55V72.4396H286.023V66.2418H294.374V72.4396H299.825V78.6813H294.374V86.5934C294.374 87.4432 294.594 88.1172 295.034 88.6154C295.503 89.0842 296.118 89.3187 296.88 89.3187C297.847 89.3187 298.697 89.0696 299.429 88.5714L301.495 94.4176ZM327.705 71.5604V95.3846H319.749V93.011C318.195 94.8571 315.851 95.7802 312.716 95.7802C310.547 95.7802 308.569 95.282 306.782 94.2857C305.023 93.2601 303.617 91.8095 302.562 89.9341C301.536 88.0586 301.023 85.8901 301.023 83.4286C301.023 80.967 301.536 78.8132 302.562 76.967C303.617 75.0916 305.023 73.6557 306.782 72.6593C308.569 71.663 310.547 71.1648 312.716 71.1648C315.529 71.1648 317.741 71.9853 319.353 73.6264V71.5604H327.705ZM314.474 89.1429C315.939 89.1429 317.141 88.6447 318.078 87.6484C319.016 86.6227 319.485 85.2161 319.485 83.4286C319.485 81.6703 319.016 80.293 318.078 79.2967C317.141 78.3004 315.939 77.8022 314.474 77.8022C313.009 77.8022 311.807 78.3004 310.869 79.2967C309.932 80.293 309.463 81.6703 309.463 83.4286C309.463 85.2161 309.932 86.6227 310.869 87.6484C311.807 88.6447 313.009 89.1429 314.474 89.1429ZM347.323 94.4176C346.62 94.8571 345.755 95.1941 344.729 95.4286C343.733 95.663 342.663 95.7802 341.521 95.7802C338.414 95.7802 336.026 95.0183 334.356 93.4945C332.685 91.9707 331.85 89.6996 331.85 86.6813V78.6813H328.378V72.4396H331.85V66.2418H340.202V72.4396H345.652V78.6813H340.202V86.5934C340.202 87.4432 340.422 88.1172 340.861 88.6154C341.33 89.0842 341.946 89.3187 342.707 89.3187C343.674 89.3187 344.524 89.0696 345.257 88.5714L347.323 94.4176ZM372.01 83.5165C372.01 83.5751 371.966 84.2637 371.878 85.5824H354.559C354.911 86.8132 355.585 87.7656 356.581 88.4396C357.607 89.0842 358.882 89.4066 360.405 89.4066C361.548 89.4066 362.53 89.2454 363.35 88.9231C364.2 88.6007 365.05 88.0733 365.9 87.3407L370.295 91.9121C367.98 94.4908 364.596 95.7802 360.142 95.7802C357.358 95.7802 354.911 95.2527 352.801 94.1978C350.692 93.1429 349.051 91.6777 347.878 89.8022C346.736 87.9267 346.164 85.8022 346.164 83.4286C346.164 81.0842 346.721 78.989 347.834 77.1429C348.977 75.2674 350.545 73.8022 352.538 72.7473C354.53 71.6923 356.772 71.1648 359.262 71.1648C361.636 71.1648 363.79 71.663 365.724 72.6593C367.658 73.6264 369.182 75.0476 370.295 76.9231C371.438 78.7692 372.01 80.967 372.01 83.5165ZM359.306 77.0989C358.017 77.0989 356.933 77.4652 356.054 78.1978C355.204 78.9304 354.662 79.9267 354.428 81.1868H364.186C363.951 79.9267 363.394 78.9304 362.515 78.1978C361.665 77.4652 360.596 77.0989 359.306 77.0989Z" fill="#FF2F56"/>
<path d="M247.287 89.8901C250.827 89.8901 253.697 87.0201 253.697 83.4799C253.697 79.9396 250.827 77.0696 247.287 77.0696C243.747 77.0696 240.877 79.9396 240.877 83.4799C240.877 87.0201 243.747 89.8901 247.287 89.8901Z" fill="white"/>
<path d="M68.2848 287H66.8075L71.0803 275.364H72.5348L76.8075 287H75.3303L74.1598 283.705H69.4553L68.2848 287ZM69.8984 282.455H73.7166L71.853 277.205H71.7621L69.8984 282.455ZM78.62 287V275.364H82.5518C83.4647 275.364 84.2109 275.528 84.7905 275.858C85.3738 276.184 85.8056 276.625 86.0859 277.182C86.3662 277.739 86.5064 278.36 86.5064 279.045C86.5064 279.731 86.3662 280.354 86.0859 280.915C85.8094 281.475 85.3814 281.922 84.8018 282.256C84.2223 282.585 83.4799 282.75 82.5746 282.75H80.0291V287H78.62ZM80.0291 281.5H82.5291C83.4647 281.5 84.1295 281.265 84.5234 280.795C84.9212 280.326 85.12 279.742 85.12 279.045C85.12 278.345 84.9212 277.765 84.5234 277.307C84.1257 276.845 83.4534 276.614 82.5064 276.614H80.0291V281.5ZM90.1854 275.364V287H88.7763V275.364H90.1854Z" fill="black"/>
<path d="M461.785 280.182C461.785 281.42 461.558 282.487 461.103 283.381C460.648 284.275 460.025 284.962 459.234 285.443C458.446 285.92 457.55 286.159 456.546 286.159C455.539 286.159 454.639 285.92 453.847 285.443C453.059 284.962 452.438 284.275 451.984 283.381C451.529 282.487 451.302 281.42 451.302 280.182C451.302 278.939 451.529 277.873 451.984 276.983C452.438 276.089 453.059 275.403 453.847 274.926C454.639 274.445 455.539 274.205 456.546 274.205C457.55 274.205 458.446 274.445 459.234 274.926C460.025 275.403 460.648 276.089 461.103 276.983C461.558 277.873 461.785 278.939 461.785 280.182ZM460.046 280.182C460.046 279.235 459.893 278.437 459.586 277.79C459.283 277.138 458.866 276.646 458.336 276.312C457.809 275.975 457.213 275.807 456.546 275.807C455.879 275.807 455.281 275.975 454.751 276.312C454.224 276.646 453.808 277.138 453.501 277.79C453.198 278.437 453.046 279.235 453.046 280.182C453.046 281.125 453.198 281.922 453.501 282.574C453.808 283.225 454.224 283.72 454.751 284.057C455.281 284.39 455.879 284.557 456.546 284.557C457.213 284.557 457.809 284.39 458.336 284.057C458.866 283.72 459.283 283.225 459.586 282.574C459.893 281.922 460.046 281.125 460.046 280.182ZM463.837 289.273V277.273H465.496V278.688H465.638C465.741 278.506 465.883 278.295 466.065 278.057C466.25 277.818 466.508 277.61 466.837 277.432C467.171 277.25 467.606 277.159 468.144 277.159C468.849 277.159 469.476 277.337 470.025 277.693C470.578 278.049 471.013 278.562 471.332 279.233C471.65 279.903 471.809 280.71 471.809 281.653C471.809 282.593 471.652 283.402 471.337 284.08C471.023 284.754 470.591 285.271 470.042 285.631C469.493 285.991 468.866 286.17 468.161 286.17C467.631 286.17 467.199 286.081 466.866 285.903C466.532 285.725 466.269 285.517 466.076 285.278C465.887 285.04 465.741 284.828 465.638 284.642H465.536V289.273H463.837ZM465.502 281.636C465.502 282.553 465.699 283.297 466.093 283.869C466.487 284.437 467.049 284.722 467.781 284.722C468.288 284.722 468.712 284.587 469.053 284.318C469.398 284.045 469.657 283.676 469.832 283.21C470.006 282.744 470.093 282.22 470.093 281.636C470.093 281.057 470.006 280.54 469.832 280.085C469.661 279.627 469.406 279.265 469.065 279C468.724 278.735 468.296 278.602 467.781 278.602C467.038 278.602 466.472 278.881 466.082 279.438C465.695 279.991 465.502 280.723 465.502 281.636ZM477.474 286.176C476.618 286.176 475.879 285.991 475.258 285.619C474.637 285.248 474.157 284.727 473.82 284.057C473.487 283.383 473.32 282.595 473.32 281.693C473.32 280.799 473.487 280.011 473.82 279.33C474.157 278.648 474.627 278.116 475.229 277.733C475.835 277.35 476.544 277.159 477.354 277.159C478.013 277.159 478.637 277.307 479.224 277.602C479.815 277.894 480.294 278.362 480.661 279.006C481.032 279.646 481.218 280.492 481.218 281.545V282.148H475.013C475.036 282.989 475.273 283.636 475.724 284.091C476.174 284.545 476.763 284.773 477.491 284.773C477.976 284.773 478.394 284.669 478.746 284.46C479.099 284.252 479.351 283.941 479.502 283.528L481.11 283.818C480.917 284.527 480.5 285.097 479.86 285.528C479.22 285.96 478.424 286.176 477.474 286.176ZM475.019 280.875H479.553C479.549 280.208 479.349 279.657 478.951 279.222C478.553 278.782 478.025 278.562 477.366 278.562C476.907 278.562 476.506 278.67 476.161 278.886C475.82 279.098 475.549 279.381 475.349 279.733C475.152 280.081 475.042 280.462 475.019 280.875ZM483.103 286V277.273H484.745V278.659H484.836C484.995 278.189 485.275 277.82 485.677 277.551C486.078 277.278 486.537 277.142 487.052 277.142C487.29 277.142 487.504 277.17 487.694 277.227C487.883 277.284 488.05 277.362 488.194 277.46L487.648 278.881C487.546 278.828 487.431 278.786 487.302 278.756C487.173 278.725 487.025 278.71 486.859 278.71C486.272 278.71 485.781 278.896 485.387 279.267C484.997 279.634 484.802 280.102 484.802 280.67V286H483.103ZM491.94 286.193C491.387 286.193 490.887 286.091 490.44 285.886C489.996 285.682 489.644 285.383 489.383 284.989C489.121 284.591 488.991 284.106 488.991 283.534C488.991 283.038 489.085 282.631 489.275 282.312C489.468 281.994 489.724 281.742 490.042 281.557C490.364 281.371 490.724 281.233 491.121 281.142C491.519 281.047 491.924 280.975 492.337 280.926C492.86 280.866 493.282 280.816 493.604 280.778C493.93 280.737 494.167 280.67 494.315 280.58C494.466 280.489 494.542 280.341 494.542 280.136V280.097C494.542 279.6 494.402 279.216 494.121 278.943C493.845 278.67 493.432 278.534 492.883 278.534C492.311 278.534 491.86 278.659 491.531 278.909C491.205 279.159 490.979 279.439 490.854 279.75L489.258 279.386C489.542 278.591 490.015 278.021 490.678 277.676C491.345 277.331 492.072 277.159 492.86 277.159C493.209 277.159 493.578 277.201 493.968 277.284C494.358 277.364 494.726 277.513 495.07 277.733C495.419 277.949 495.701 278.256 495.917 278.653C496.137 279.051 496.246 279.568 496.246 280.205V286H494.587V284.807H494.519C494.356 285.133 494.067 285.445 493.65 285.744C493.233 286.044 492.663 286.193 491.94 286.193ZM492.309 284.83C492.782 284.83 493.186 284.737 493.519 284.551C493.853 284.366 494.106 284.123 494.281 283.824C494.459 283.521 494.548 283.197 494.548 282.852V281.727C494.468 281.807 494.294 281.877 494.025 281.938C493.756 281.998 493.472 282.049 493.173 282.091C492.873 282.133 492.631 282.167 492.445 282.193C491.953 282.258 491.531 282.388 491.178 282.585C490.83 282.778 490.656 283.102 490.656 283.557C490.656 283.977 490.811 284.295 491.121 284.511C491.432 284.723 491.828 284.83 492.309 284.83ZM502.583 277.273V278.636H500.793V283.438C500.793 283.93 500.897 284.248 501.106 284.392C501.318 284.532 501.562 284.602 501.839 284.602C501.975 284.602 502.094 284.593 502.197 284.574C502.299 284.555 502.379 284.54 502.435 284.528L502.742 285.932C502.644 285.97 502.502 286.008 502.316 286.045C502.134 286.087 501.909 286.11 501.64 286.114C501.193 286.121 500.774 286.042 500.384 285.875C499.998 285.708 499.685 285.451 499.447 285.102C499.212 284.754 499.094 284.316 499.094 283.79V278.636H497.816V277.273H499.094V275.182H500.793V277.273H502.583ZM504.462 286V277.273H506.161V286H504.462ZM505.32 275.926C505.025 275.926 504.771 275.828 504.559 275.631C504.351 275.43 504.246 275.191 504.246 274.915C504.246 274.634 504.351 274.396 504.559 274.199C504.771 273.998 505.025 273.898 505.32 273.898C505.612 273.898 505.864 273.998 506.076 274.199C506.288 274.396 506.394 274.634 506.394 274.915C506.394 275.191 506.288 275.43 506.076 275.631C505.864 275.828 505.612 275.926 505.32 275.926ZM512.123 286.176C511.305 286.176 510.591 285.989 509.981 285.614C509.371 285.239 508.897 284.714 508.56 284.04C508.223 283.362 508.055 282.574 508.055 281.676C508.055 280.771 508.223 279.979 508.56 279.301C508.897 278.623 509.371 278.097 509.981 277.722C510.591 277.347 511.305 277.159 512.123 277.159C512.945 277.159 513.659 277.347 514.265 277.722C514.875 278.097 515.348 278.623 515.685 279.301C516.022 279.979 516.191 280.771 516.191 281.676C516.191 282.574 516.022 283.362 515.685 284.04C515.348 284.714 514.875 285.239 514.265 285.614C513.659 285.989 512.945 286.176 512.123 286.176ZM512.129 284.75C512.663 284.75 513.102 284.61 513.447 284.33C513.795 284.049 514.053 283.676 514.219 283.21C514.39 282.741 514.475 282.227 514.475 281.67C514.475 281.114 514.39 280.6 514.219 280.131C514.053 279.661 513.795 279.286 513.447 279.006C513.102 278.722 512.663 278.58 512.129 278.58C511.594 278.58 511.153 278.722 510.805 279.006C510.456 279.286 510.197 279.661 510.026 280.131C509.856 280.6 509.771 281.114 509.771 281.67C509.771 282.227 509.856 282.741 510.026 283.21C510.197 283.676 510.456 284.049 510.805 284.33C511.153 284.61 511.594 284.75 512.129 284.75ZM519.786 280.818V286H518.087V277.273H519.718V278.693H519.826C520.027 278.231 520.341 277.86 520.769 277.58C521.201 277.299 521.745 277.159 522.4 277.159C523.294 277.159 524.012 277.438 524.553 277.994C525.099 278.551 525.371 279.369 525.371 280.449V286H523.673V280.653C523.673 280.021 523.508 279.527 523.178 279.17C522.849 278.811 522.396 278.631 521.82 278.631C521.229 278.631 520.743 278.822 520.36 279.205C519.978 279.583 519.786 280.121 519.786 280.818ZM530.19 286.193C529.637 286.193 529.137 286.091 528.69 285.886C528.246 285.682 527.894 285.383 527.633 284.989C527.371 284.591 527.241 284.106 527.241 283.534C527.241 283.038 527.335 282.631 527.525 282.312C527.718 281.994 527.974 281.742 528.292 281.557C528.614 281.371 528.974 281.233 529.371 281.142C529.769 281.047 530.174 280.975 530.587 280.926C531.11 280.866 531.532 280.816 531.854 280.778C532.18 280.737 532.417 280.67 532.565 280.58C532.716 280.489 532.792 280.341 532.792 280.136V280.097C532.792 279.6 532.652 279.216 532.371 278.943C532.095 278.67 531.682 278.534 531.133 278.534C530.561 278.534 530.11 278.659 529.781 278.909C529.455 279.159 529.229 279.439 529.104 279.75L527.508 279.386C527.792 278.591 528.265 278.021 528.928 277.676C529.595 277.331 530.322 277.159 531.11 277.159C531.459 277.159 531.828 277.201 532.218 277.284C532.608 277.364 532.976 277.513 533.32 277.733C533.669 277.949 533.951 278.256 534.167 278.653C534.387 279.051 534.496 279.568 534.496 280.205V286H532.837V284.807H532.769C532.606 285.133 532.317 285.445 531.9 285.744C531.483 286.044 530.913 286.193 530.19 286.193ZM530.559 284.83C531.032 284.83 531.436 284.737 531.769 284.551C532.103 284.366 532.356 284.123 532.531 283.824C532.709 283.521 532.798 283.197 532.798 282.852V281.727C532.718 281.807 532.544 281.877 532.275 281.938C532.006 281.998 531.722 282.049 531.423 282.091C531.123 282.133 530.881 282.167 530.695 282.193C530.203 282.258 529.781 282.388 529.428 282.585C529.08 282.778 528.906 283.102 528.906 283.557C528.906 283.977 529.061 284.295 529.371 284.511C529.682 284.723 530.078 284.83 530.559 284.83ZM538.458 274.364V286H536.759V274.364H538.458Z" fill="#20C6B7"/>
<defs>
<filter id="filter0_d" x="0" y="207" width="608" height="175" filterUnits="userSpaceOnUse" color-interpolation-filters="sRGB">
<feFlood flood-opacity="0" result="BackgroundImageFix"/>
<feColorMatrix in="SourceAlpha" type="matrix" values="0 0 0 0 0 0 0 0 0 0 0 0 0 0 0 0 0 0 127 0"/>
<feOffset/>
<feGaussianBlur stdDeviation="32"/>
<feColorMatrix type="matrix" values="0 0 0 0 0 0 0 0 0 0 0 0 0 0 0 0 0 0 0.2 0"/>
<feBlend mode="normal" in2="BackgroundImageFix" result="effect1_dropShadow"/>
<feBlend mode="normal" in="SourceGraphic" in2="effect1_dropShadow" result="shape"/>
</filter>
<filter id="filter1_d" x="16" y="239" width="576" height="114.133" filterUnits="userSpaceOnUse" color-interpolation-filters="sRGB">
<feFlood flood-opacity="0" result="BackgroundImageFix"/>
<feColorMatrix in="SourceAlpha" type="matrix" values="0 0 0 0 0 0 0 0 0 0 0 0 0 0 0 0 0 0 127 0"/>
<feOffset dy="16"/>
<feGaussianBlur stdDeviation="16"/>
<feColorMatrix type="matrix" values="0 0 0 0 0 0 0 0 0 0 0 0 0 0 0 0 0 0 0.1 0"/>
<feBlend mode="normal" in2="BackgroundImageFix" result="effect1_dropShadow"/>
<feBlend mode="normal" in="SourceGraphic" in2="effect1_dropShadow" result="shape"/>
</filter>
<filter id="filter2_d" x="31" y="0" width="544" height="192" filterUnits="userSpaceOnUse" color-interpolation-filters="sRGB">
<feFlood flood-opacity="0" result="BackgroundImageFix"/>
<feColorMatrix in="SourceAlpha" type="matrix" values="0 0 0 0 0 0 0 0 0 0 0 0 0 0 0 0 0 0 127 0"/>
<feOffset dy="16"/>
<feGaussianBlur stdDeviation="16"/>
<feColorMatrix type="matrix" values="0 0 0 0 0 0 0 0 0 0 0 0 0 0 0 0 0 0 0.15 0"/>
<feBlend mode="normal" in2="BackgroundImageFix" result="effect1_dropShadow"/>
<feBlend mode="normal" in="SourceGraphic" in2="effect1_dropShadow" result="shape"/>
</filter>
</defs>
</svg>
