<?xml version="1.0" standalone="no"?>
<!DOCTYPE svg PUBLIC "-//W3C//DTD SVG 20010904//EN"
 "http://www.w3.org/TR/2001/REC-SVG-20010904/DTD/svg10.dtd">
<svg version="1.0" xmlns="http://www.w3.org/2000/svg"
 width="608.000000pt" height="421.000000pt" viewBox="0 0 608.000000 421.000000"
 preserveAspectRatio="xMidYMid meet">
<metadata>
Created by potrace 1.16, written by Peter Selinger 2001-2019
</metadata>
<g transform="translate(0.000000,421.000000) scale(0.100000,-0.100000)"
fill="#000000" stroke="none">
<path d="M1151 4171 c-8 -14 -7 -22 4 -31 8 -7 12 -17 9 -22 -4 -6 -20 5 -36
23 -16 19 -28 28 -26 20 3 -13 -21 -21 -64 -22 -9 0 -19 -8 -21 -17 -2 -9 -3
-2 -2 16 2 17 -2 32 -7 32 -6 0 -8 -7 -5 -15 4 -8 2 -17 -4 -20 -5 -4 -6 -11
-3 -17 4 -5 -5 -2 -19 7 -27 18 -73 12 -61 -7 4 -7 2 -8 -5 -4 -6 4 -18 3 -25
-3 -10 -9 -15 -8 -20 4 -3 9 -2 13 4 10 6 -3 10 -1 10 4 0 6 5 10 12 9 6 -2
13 6 15 17 2 15 1 16 -5 5 -10 -21 -41 -24 -48 -5 -3 8 -10 15 -15 15 -6 0 -5
-8 1 -19 7 -14 6 -21 -3 -24 -9 -3 -9 -7 1 -19 12 -15 5 -17 -41 -9 -4 0 -12
11 -17 24 -7 17 -9 18 -9 5 -1 -10 -5 -18 -11 -18 -5 0 -6 8 -3 17 5 12 2 15
-10 10 -8 -3 -18 -1 -21 6 -2 7 -5 0 -5 -15 -1 -17 5 -28 17 -31 9 -2 7 -3 -6
-2 -12 1 -25 -2 -28 -6 -3 -5 -11 -9 -17 -9 -7 0 -6 4 3 10 8 5 11 10 6 10 -5
0 -3 7 4 15 7 9 10 18 6 22 -3 3 -6 2 -6 -4 0 -5 -17 -9 -37 -9 -30 1 -40 -4
-49 -22 -7 -15 -14 -20 -18 -13 -5 8 -13 8 -27 0 -11 -6 -27 -8 -35 -5 -11 4
-13 -1 -10 -22 5 -25 4 -26 -9 -8 -8 10 -12 22 -10 27 6 9 -22 5 -32 -5 -4 -4
-3 -6 2 -4 6 2 11 -1 13 -7 1 -5 -1 -10 -5 -10 -18 -1 -33 -18 -32 -38 1 -20
2 -20 13 5 10 25 13 26 24 10 10 -15 11 -15 6 3 -3 12 3 6 16 -12 12 -18 26
-33 31 -33 5 0 9 -5 9 -10 0 -7 -6 -7 -19 -1 -10 6 -22 7 -26 3 -5 -4 -6 1 -2
10 6 16 -20 35 -31 23 -3 -3 -2 -5 2 -5 4 0 1 -6 -6 -14 -7 -8 -16 -12 -20 -9
-5 2 -8 -1 -8 -6 0 -6 -5 -11 -11 -11 -5 0 -7 5 -4 10 3 6 1 10 -5 10 -7 0 -9
-7 -6 -16 4 -10 -1 -22 -11 -29 -14 -10 -15 -16 -5 -27 6 -8 9 -18 6 -21 -4
-4 3 -5 14 -2 12 2 24 0 27 -5 3 -5 -3 -7 -13 -5 -31 6 -46 -9 -26 -26 10 -8
15 -9 12 -4 -3 6 8 11 25 12 l32 2 -28 -15 c-15 -8 -25 -19 -22 -24 3 -6 -1
-7 -11 -3 -12 4 -15 2 -12 -8 3 -8 11 -13 18 -11 10 2 11 0 2 -11 -7 -8 -8
-18 -4 -22 4 -5 1 -5 -6 -1 -7 4 -10 12 -7 17 4 5 2 9 -3 9 -6 0 -13 -7 -16
-16 -3 -8 -11 -12 -17 -8 -8 4 -7 9 2 16 12 8 12 9 0 6 -21 -6 -23 -37 -2 -33
9 1 24 -2 34 -7 20 -10 23 -33 3 -25 -26 10 -29 -26 -4 -45 26 -20 21 -22 -19
-8 -26 9 -27 9 -9 -5 13 -10 15 -15 6 -15 -9 0 -8 -5 6 -16 10 -8 14 -13 7
-10 -6 4 -14 2 -18 -4 -4 -6 -12 -7 -18 -4 -8 5 -8 3 1 -7 17 -19 16 -45 -1
-30 -10 8 -14 7 -14 -3 0 -8 8 -13 19 -11 12 3 16 0 12 -7 -4 -6 -8 -25 -10
-41 -1 -17 1 -25 6 -17 4 7 10 8 14 2 3 -5 -3 -17 -14 -27 -26 -24 -25 -30 5
-33 14 -1 25 3 25 9 0 5 -6 7 -12 4 -7 -4 -6 -1 3 7 9 7 17 18 18 23 2 6 6 17
11 25 6 10 8 6 7 -13 -1 -15 -5 -27 -9 -27 -4 0 -8 -10 -10 -22 -2 -15 -10
-23 -23 -23 -15 0 -20 -7 -20 -27 -1 -15 2 -25 6 -22 4 2 6 -12 5 -31 -4 -39
-3 -39 27 -24 14 7 12 2 -8 -14 -16 -14 -27 -28 -23 -32 10 -11 29 5 22 18 -3
7 2 3 10 -7 20 -25 20 -30 1 -46 -12 -10 -13 -16 -3 -28 11 -13 9 -15 -22 -9
-25 5 -31 4 -20 -3 13 -9 13 -11 0 -21 -13 -9 -12 -10 2 -5 10 3 18 1 18 -4 0
-6 -4 -10 -8 -10 -16 0 -6 -64 16 -105 3 -5 -2 -4 -11 4 -11 9 -17 10 -17 2 0
-6 -5 -11 -11 -11 -5 0 -7 5 -3 12 4 7 3 8 -5 4 -15 -10 -3 -29 15 -22 8 3 14
1 14 -4 0 -6 -5 -10 -12 -10 -6 0 -9 -3 -6 -6 4 -3 18 2 32 12 15 9 29 14 32
11 3 -3 -4 -8 -15 -12 -21 -6 -30 -45 -11 -45 6 0 10 5 10 12 0 17 10 4 15
-20 2 -11 -2 -26 -10 -32 -11 -9 -12 -7 -7 12 5 20 3 21 -10 11 -8 -7 -19 -9
-23 -5 -5 4 -5 2 -2 -5 4 -6 1 -13 -5 -16 -7 -2 4 -8 25 -12 41 -8 46 -16 20
-36 -10 -7 -15 -9 -11 -5 4 5 3 15 -3 23 -13 15 -33 18 -24 3 3 -5 0 -10 -7
-11 -7 0 -3 -4 10 -10 13 -5 21 -13 18 -18 -3 -5 3 -7 14 -4 12 3 20 0 20 -6
0 -7 -4 -9 -10 -6 -5 3 -10 1 -10 -5 0 -6 -4 -9 -9 -6 -5 3 -8 -5 -8 -18 0
-18 4 -23 17 -21 10 2 21 -3 24 -11 6 -16 -5 -19 -20 -4 -12 12 -50 -17 -49
-37 0 -16 20 -12 20 4 0 6 3 15 7 18 4 4 5 -11 4 -34 -2 -23 1 -41 7 -41 5 0
-1 -9 -14 -20 -13 -10 -18 -19 -11 -20 6 0 12 5 12 12 0 6 3 8 7 4 4 -4 8 -15
8 -24 0 -29 32 -25 43 5 7 18 11 22 11 10 1 -10 -13 -31 -30 -47 l-32 -29 32
-3 c31 -3 31 -3 10 -16 -11 -8 -19 -10 -16 -5 3 5 -3 9 -14 9 -19 0 -19 -1 1
-16 14 -11 19 -22 14 -33 -3 -10 -3 -17 2 -16 21 4 35 -2 29 -11 -3 -5 1 -10
10 -10 9 0 14 -4 11 -9 -3 -5 2 -15 11 -22 12 -10 14 -10 9 -1 -4 6 -2 12 3
12 6 0 11 -4 11 -9 0 -15 -27 -32 -43 -25 -8 3 -18 0 -23 -7 -4 -8 -3 -10 4
-5 6 4 21 2 33 -5 17 -9 20 -8 14 2 -6 9 -3 11 9 6 10 -4 20 -7 22 -7 2 0 4
-8 5 -17 0 -11 3 -13 6 -6 3 10 8 9 20 -2 11 -12 12 -19 4 -29 -8 -9 -7 -13 2
-13 16 0 19 26 6 43 -6 8 -1 10 16 9 16 -2 25 2 25 11 0 9 -9 13 -29 10 -16
-2 -35 1 -43 6 -10 7 -9 8 4 4 13 -4 18 0 18 12 0 10 3 13 8 7 4 -5 16 -12 27
-13 24 -5 21 -1 29 -35 6 -25 4 -28 -13 -22 -14 4 -19 1 -17 -9 1 -9 6 -19 11
-23 4 -4 5 -2 1 5 -5 8 0 12 16 11 13 0 17 -3 11 -6 -7 -2 -13 -9 -13 -14 0
-6 4 -8 8 -5 5 3 10 -63 11 -147 1 -83 4 -153 6 -156 3 -2 90 -4 194 -3 169 0
190 -1 194 -16 4 -15 5 -15 6 1 1 16 15 17 178 14 153 -2 178 -5 187 -20 8
-13 6 -21 -9 -34 -16 -16 -17 -16 -6 -1 15 21 6 39 -15 31 -12 -5 -13 -7 -3
-14 10 -6 9 -10 -5 -15 -11 -4 -24 0 -34 11 -9 10 -12 15 -6 12 7 -4 17 0 23
7 10 12 8 13 -11 9 -13 -3 -28 -10 -35 -15 -7 -6 -13 -3 -16 9 -4 17 -5 17 -6
-1 -1 -15 -4 -16 -16 -6 -12 10 -15 9 -15 -6 0 -17 -1 -17 -15 2 -12 15 -16
16 -24 5 -9 -14 -55 -6 -46 9 3 5 -9 5 -27 -1 -41 -11 -41 -11 -32 3 4 7 3 8
-4 4 -6 -4 -9 -13 -5 -21 3 -8 0 -15 -7 -15 -7 0 -9 -8 -5 -20 3 -11 2 -20 -4
-20 -5 0 -8 14 -6 30 2 17 0 30 -5 30 -6 0 -10 -4 -10 -10 0 -6 -9 -6 -25 0
-16 6 -27 6 -31 -2 -5 -7 -3 -8 6 -3 9 5 11 4 6 -4 -11 -17 -29 -2 -23 19 4
15 1 17 -23 10 -16 -5 -32 -5 -36 -2 -4 4 2 -6 12 -23 10 -16 14 -26 7 -22 -7
5 -17 -1 -23 -14 -7 -11 -14 -18 -17 -15 -4 3 -12 1 -19 -5 -8 -7 -14 -7 -19
1 -3 5 0 10 9 10 15 0 15 10 -2 53 -13 30 -24 34 -42 12 -14 -17 -30 -16 -48
5 -8 8 -11 10 -8 3 9 -17 -4 -43 -21 -43 -8 0 -11 4 -8 10 3 6 -1 7 -9 4 -9
-3 -16 -10 -16 -14 0 -12 -28 -20 -45 -14 -8 4 -15 11 -15 16 0 7 5 6 14 -1
10 -9 16 -8 26 4 10 12 7 14 -20 10 -41 -5 -45 -9 -25 -29 9 -9 14 -17 11 -17
-23 -5 -32 -3 -43 11 -9 11 -10 5 -8 -33 3 -41 1 -46 -11 -36 -16 13 -19 23
-4 14 6 -3 10 0 10 8 0 21 -38 29 -49 10 -7 -13 -9 -13 -14 1 -12 29 -22 16
-23 -28 0 -34 2 -41 12 -32 7 6 11 15 11 20 -1 5 4 11 11 13 6 3 12 0 12 -7 0
-6 4 -9 9 -6 4 3 7 -5 7 -17 -1 -12 3 -29 8 -37 9 -13 8 -13 -5 -3 -9 7 -19
10 -23 6 -4 -4 -11 -1 -16 7 -7 12 -11 12 -27 0 -10 -8 -15 -10 -11 -6 4 5 0
15 -10 23 -9 8 -12 12 -5 9 15 -8 27 10 13 19 -6 4 -17 1 -25 -5 -11 -9 -15
-9 -15 -1 0 6 6 11 13 11 9 0 9 2 -1 9 -11 7 -11 9 2 14 8 3 17 1 20 -6 2 -7
5 -5 5 4 1 21 -26 32 -36 16 -24 -36 -32 -58 -20 -51 7 4 9 4 5 -1 -4 -4 -2
-15 5 -23 12 -15 10 -14 -42 15 -2 2 2 9 9 18 7 8 10 15 6 15 -3 0 -16 -15
-27 -32 -16 -25 -20 -28 -16 -11 3 13 1 26 -5 29 -16 10 -31 -13 -23 -33 5
-10 7 -22 6 -27 -3 -13 31 -34 46 -29 22 8 26 -24 6 -44 -15 -15 -22 -17 -31
-7 -9 10 -7 13 9 16 19 3 28 23 10 23 -5 0 -13 3 -17 8 -10 9 -25 9 -22 0 3
-8 -5 -13 -22 -13 -16 0 -11 18 6 22 14 3 14 6 -5 28 -11 14 -20 20 -21 13 0
-6 6 -13 13 -16 6 -2 9 -7 5 -11 -11 -12 -42 -14 -56 -3 -7 6 -12 6 -11 1 4
-25 -3 -25 -29 -1 -20 19 -31 24 -42 17 -12 -8 -10 -10 9 -10 16 0 21 -4 17
-15 -3 -8 -2 -14 2 -14 20 3 33 -2 27 -11 -3 -5 -1 -10 4 -10 6 0 11 5 11 10
0 6 4 10 9 10 5 0 8 -8 6 -17 -1 -11 -11 -18 -23 -17 -11 0 -20 -4 -19 -10 1
-6 -3 -10 -9 -9 -6 1 -11 -4 -11 -12 0 -8 4 -12 8 -10 4 3 10 -2 13 -11 9 -24
7 -28 -7 -15 -10 8 -19 7 -33 -3 -16 -13 -17 -17 -5 -28 8 -7 11 -8 9 -3 -3 6
1 16 9 24 13 12 14 11 8 -10 -4 -13 -10 -30 -12 -36 -3 -9 5 -13 23 -14 31 -1
27 -3 -19 -13 -15 -4 -25 -11 -22 -16 3 -6 -4 -10 -17 -10 -22 -1 -22 -1 -4
-15 11 -8 14 -15 8 -15 -7 0 -12 -5 -12 -11 0 -16 -36 -59 -44 -52 -3 3 -6 -3
-6 -15 0 -24 14 -29 26 -10 5 7 2 8 -7 3 -11 -6 -12 -5 -2 6 8 8 16 10 23 3
14 -14 -4 -35 -34 -38 -21 -3 -26 0 -21 12 4 12 3 13 -10 2 -14 -11 -13 -14 5
-27 15 -10 25 -11 40 -3 25 13 25 3 2 -33 -10 -15 -23 -24 -28 -20 -5 5 2 -4
15 -20 18 -20 27 -24 33 -15 5 9 8 9 8 2 0 -6 -6 -17 -14 -23 -16 -13 -9 -64
8 -58 6 3 10 10 8 16 -1 7 2 10 8 6 5 -3 10 -13 10 -22 0 -13 2 -13 17 -2 15
13 15 12 5 -8 -7 -12 -17 -25 -23 -29 -8 -4 -7 -9 2 -15 11 -7 11 -9 2 -10 -7
-1 -17 -3 -23 -4 -5 -1 -14 -3 -19 -4 -18 -2 -20 -33 -5 -57 9 -13 13 -24 8
-24 -4 0 0 -6 10 -13 11 -8 16 -20 13 -28 -4 -10 -6 -9 -6 4 -1 9 -5 17 -9 17
-5 0 -8 -19 -7 -42 1 -29 5 -42 14 -40 7 1 10 -2 7 -7 -4 -5 -1 -11 4 -13 7
-2 5 -11 -4 -23 -15 -20 -15 -20 -10 1 6 23 -10 41 -20 25 -4 -5 -2 -12 3 -16
6 -3 8 -12 5 -19 -3 -7 2 -16 11 -20 9 -3 13 -10 10 -16 -3 -5 -1 -10 4 -10 6
0 11 6 11 14 0 8 6 17 13 20 6 3 1 3 -13 -1 -22 -5 -23 -4 -12 10 21 24 32 75
19 81 -8 3 -8 5 1 5 8 1 10 6 5 14 -13 20 -14 57 -2 57 6 0 8 -7 5 -16 -5 -12
-2 -15 11 -10 16 5 16 5 2 -7 -14 -10 -14 -14 -2 -25 11 -11 11 -17 3 -27 -7
-8 -9 -19 -5 -25 5 -7 11 -5 20 7 7 10 11 22 8 27 -4 5 -1 6 5 2 7 -4 12 -14
12 -22 0 -8 -4 -13 -9 -9 -5 3 -12 -4 -16 -15 -4 -11 -11 -17 -17 -14 -6 4 -8
-1 -4 -14 4 -11 2 -23 -4 -27 -13 -8 -13 -26 0 -22 6 1 17 -13 25 -30 15 -36
10 -40 -20 -20 -11 7 -27 13 -35 12 -8 -1 -26 8 -40 19 l-25 21 21 -25 c12
-14 20 -30 17 -36 -5 -16 33 -24 48 -10 9 8 10 8 5 -1 -4 -8 -1 -13 8 -13 9 0
16 -7 16 -16 0 -9 -5 -12 -12 -8 -7 4 -8 3 -4 -5 4 -6 13 -9 19 -5 7 3 3 -2
-8 -11 -20 -17 -20 -17 1 -11 24 7 44 -11 40 -37 -3 -26 -12 -29 -27 -10 -12
14 -12 16 0 8 10 -6 12 -4 6 5 -5 9 -4 11 3 6 7 -4 12 -3 12 3 0 18 -18 21
-25 3 -14 -31 -13 -42 1 -42 9 0 12 -4 9 -10 -3 -6 1 -7 9 -4 9 3 16 10 16 16
0 5 6 6 13 1 6 -4 17 -8 22 -9 6 -1 17 -4 25 -6 8 -3 12 -3 8 -1 -5 3 -8 12
-8 21 0 15 -2 15 -10 2 -9 -13 -10 -13 -11 0 0 8 -3 28 -5 43 -3 19 -1 26 6
22 6 -4 9 3 6 17 -2 13 -8 22 -14 21 -6 -1 -9 5 -7 15 2 9 4 20 4 25 1 4 5 7
11 7 5 0 9 -3 9 -7 -4 -28 2 -45 16 -39 8 3 15 1 15 -5 0 -6 5 -7 12 -3 6 4 8
3 5 -4 -4 -5 -17 -8 -30 -4 -20 5 -21 4 -8 -11 15 -19 37 -22 44 -7 3 6 4 5 3
-2 -2 -7 -14 -13 -29 -13 -14 0 -29 -3 -33 -8 -4 -4 -1 -7 7 -7 11 0 11 -2 -1
-10 -13 -8 -12 -10 3 -10 9 0 17 -7 17 -15 0 -8 6 -14 12 -12 7 1 12 -3 11
-10 -2 -6 6 -11 17 -10 11 1 20 3 20 4 0 2 -15 17 -32 35 -19 17 -25 29 -16
25 20 -7 50 1 44 12 -3 4 5 7 18 7 15 0 22 -6 22 -19 0 -15 -2 -16 -11 -4 -7
10 -14 11 -27 4 -15 -10 -15 -13 -1 -34 14 -21 14 -25 -1 -42 -13 -14 -14 -21
-6 -26 7 -4 17 -1 22 6 8 11 9 10 4 -3 -3 -10 1 -24 10 -32 9 -9 10 -17 4 -21
-16 -10 -12 -25 5 -19 8 4 15 14 16 23 0 13 2 13 8 -2 6 -18 7 -18 23 0 11 12
15 27 11 42 -4 17 -8 19 -14 9 -7 -10 -12 -9 -26 6 -17 19 -17 19 1 5 18 -12
19 -12 14 2 -4 10 -1 16 8 16 8 0 14 -4 14 -9 0 -4 5 -8 10 -8 6 0 10 9 10 19
0 27 35 16 37 -11 2 -19 1 -19 -11 -3 -12 16 -13 16 -19 2 -4 -10 1 -20 11
-26 16 -10 16 -10 0 -11 -10 0 -18 5 -18 12 0 6 -3 8 -7 5 -3 -4 3 -16 15 -27
21 -19 21 -56 0 -44 -6 4 -6 9 2 14 8 5 9 10 2 14 -13 8 -44 -22 -36 -35 3 -5
9 -7 14 -4 12 7 41 -5 35 -15 -3 -5 -1 -11 4 -14 5 -3 11 1 15 9 3 8 1 15 -4
15 -6 0 -10 6 -10 13 1 6 9 2 19 -11 19 -21 48 -32 36 -12 -3 6 -2 10 3 10 20
0 19 -27 0 -39 -11 -7 -17 -8 -13 -2 3 6 -1 11 -9 11 -13 0 -14 -4 -5 -18 6
-9 21 -17 34 -17 l23 0 1 323 2 322 -81 0 -80 0 0 250 0 250 80 0 80 0 0 105
c0 103 -3 111 -33 106 -4 0 -7 4 -7 10 0 6 9 8 21 4 18 -6 20 -4 14 17 -4 16
-3 19 3 9 8 -11 14 -10 38 4 26 16 27 16 9 0 l-20 -17 20 4 c31 5 48 33 35 58
-6 11 -7 20 -3 21 4 0 17 2 28 4 19 3 19 3 3 -9 -10 -7 -15 -16 -11 -20 10
-10 13 -37 3 -31 -4 3 -10 -1 -13 -8 -3 -7 5 -13 19 -13 13 -1 22 2 19 6 -3 5
-1 10 4 12 13 5 24 48 12 48 -6 0 -11 5 -11 11 0 5 5 7 11 3 8 -4 9 1 4 17 -7
21 -6 22 9 10 12 -10 14 -17 5 -27 -10 -13 -6 -18 13 -15 4 0 -2 -15 -13 -34
-12 -19 -16 -35 -11 -35 6 0 14 9 17 20 3 11 13 20 21 20 8 0 12 5 9 11 -4 6
9 0 29 -13 19 -13 30 -25 24 -27 -7 -2 -14 1 -16 8 -3 9 -7 9 -18 0 -8 -7 -17
-9 -21 -5 -3 3 -1 6 5 6 7 0 12 5 12 10 0 7 -7 7 -20 0 -11 -6 -18 -15 -15
-20 8 -13 4425 -13 4445 0 9 6 17 5 22 -2 5 -9 13 -9 33 0 17 8 24 8 20 1 -9
-13 114 -10 133 4 7 6 12 6 12 -1 0 -6 -9 -14 -20 -17 -14 -5 -20 -15 -20 -37
0 -27 2 -29 18 -17 16 13 16 13 0 -7 -14 -16 -18 -39 -18 -97 l0 -77 80 0 80
0 0 -250 0 -250 -80 0 -80 0 2 -247 c3 -241 4 -248 23 -246 19 1 20 1 1 -12
-17 -13 -17 -17 -5 -32 8 -9 9 -14 3 -10 -7 4 -15 0 -18 -9 -9 -23 -7 -36 4
-29 6 3 10 1 10 -4 0 -6 -4 -11 -10 -11 -5 0 -10 -4 -10 -8 0 -21 26 -6 28 16
3 35 12 41 12 9 0 -14 5 -29 12 -33 7 -4 8 -3 4 4 -4 7 -2 12 4 12 6 0 9 4 6
9 -11 17 24 5 37 -13 12 -16 15 -17 20 -3 3 8 -1 21 -9 28 -8 7 -12 20 -9 30
8 24 -11 25 -24 2 -10 -17 -10 -17 -11 1 0 16 -2 17 -17 5 -11 -10 -14 -10 -9
-2 4 8 2 13 -4 13 -6 0 -8 5 -4 11 4 7 9 7 13 2 3 -5 20 -9 36 -9 26 1 30 -2
28 -22 -2 -13 1 -21 6 -17 5 3 12 -3 15 -13 4 -10 13 -19 20 -19 8 0 12 6 9
14 -3 7 -9 10 -14 7 -17 -10 -9 9 9 22 14 10 20 10 37 -4 20 -17 20 -17 2 5
-11 12 -16 26 -13 32 9 15 38 1 32 -15 -3 -8 3 -18 14 -24 16 -9 18 -8 13 6
-4 11 -3 15 5 10 6 -3 14 -2 17 4 4 6 3 10 -2 9 -20 -3 -34 2 -28 11 4 6 10 8
15 5 5 -3 5 9 0 27 -7 23 -7 29 2 20 14 -14 42 12 34 33 -3 8 -1 15 5 15 16 0
39 -27 31 -35 -4 -5 -2 -5 5 -1 6 3 10 15 8 26 -2 11 0 20 6 20 11 0 13 30 2
31 -5 0 -20 2 -36 4 -15 2 -25 0 -22 -6 4 -5 15 -9 26 -9 11 0 17 -4 14 -10
-8 -13 -45 -13 -46 0 -5 30 -2 35 25 37 15 1 34 10 41 20 12 16 13 15 8 -8 -3
-19 2 -33 19 -49 l23 -22 -22 7 c-13 3 -23 2 -23 -3 0 -12 32 -12 48 1 6 5 12
17 11 26 0 13 -2 13 -8 -2 -6 -15 -9 -16 -17 -5 -18 23 -24 48 -11 45 7 -1 11
4 10 11 -2 6 2 12 7 12 13 0 13 -17 0 -25 -5 -3 -10 -10 -10 -16 0 -5 8 -1 18
8 18 19 27 73 12 73 -6 0 -10 6 -10 13 1 6 9 1 20 -12 11 -12 17 -28 13 -35
-4 -7 -1 -7 9 1 8 7 19 9 24 5 4 -4 2 1 -5 11 -8 9 -11 20 -8 23 3 3 -1 23 -8
44 -13 37 -12 39 10 54 15 10 26 12 30 6 3 -6 2 -10 -4 -10 -5 0 -9 -9 -8 -19
0 -11 5 -17 9 -15 5 3 6 9 3 14 -3 5 -1 11 5 15 6 4 8 11 5 16 -4 5 -1 9 6 9
7 0 4 6 -6 14 -11 8 -22 13 -26 11 -3 -2 -3 9 -1 26 4 26 22 53 22 32 0 -5 10
-9 23 -10 21 -2 21 -1 -3 12 -14 7 -28 11 -32 9 -5 -3 -8 0 -8 7 0 8 -4 8 -15
-1 -13 -11 -14 -10 -9 4 4 11 14 16 26 13 13 -4 18 -1 14 8 -8 21 6 26 20 7 9
-13 9 -19 1 -25 -8 -6 -7 -7 3 -4 16 4 15 40 -1 45 -5 2 -7 8 -3 13 3 5 1 9
-5 9 -5 0 -11 -6 -14 -12 -4 -11 -7 -11 -18 0 -9 9 -10 12 -1 12 7 0 12 7 12
16 0 8 4 13 9 10 4 -3 16 3 25 13 15 17 14 18 -22 17 -25 -1 -39 3 -39 12 0 9
10 11 31 7 27 -4 28 -4 9 5 -13 5 -23 15 -23 22 -1 7 -9 3 -19 -10 -23 -26
-21 -58 3 -54 23 4 20 -15 -4 -23 -11 -4 -17 -11 -14 -17 4 -6 2 -8 -4 -5 -5
4 -8 17 -4 30 5 19 3 20 -10 10 -12 -10 -15 -10 -15 2 0 8 4 15 9 15 4 0 7 3
7 8 -5 28 3 51 15 46 19 -7 32 16 15 27 -10 6 -7 9 11 9 22 1 23 2 9 13 -15
11 -15 15 -2 32 14 18 15 18 9 2 -8 -24 4 -44 15 -26 6 9 9 10 9 2 0 -6 -7
-19 -16 -27 -11 -12 -13 -20 -5 -33 7 -13 10 -14 11 -4 0 8 3 12 6 8 8 -8 34
18 34 34 0 7 -7 5 -15 -7 -15 -18 -16 -17 -9 16 9 48 12 52 37 39 17 -9 20 -9
10 1 -6 7 -9 18 -7 25 3 7 -1 16 -8 21 -7 4 -10 4 -6 0 7 -8 -33 -59 -40 -51
-3 2 0 10 5 17 14 18 24 48 15 45 -8 -2 -12 7 -12 29 0 9 5 12 13 8 6 -4 3 2
-7 15 -11 12 -25 20 -31 17 -6 -2 -11 5 -11 15 0 15 3 16 16 5 8 -7 22 -17 30
-21 12 -7 12 -5 -1 11 -9 10 -14 26 -12 34 3 11 2 12 -5 2 -6 -9 -12 -6 -20
13 -15 32 -15 55 -2 55 6 0 10 -5 10 -11 0 -5 4 -7 10 -4 11 7 -9 34 -23 32
-5 -1 -13 8 -18 21 -6 15 -5 21 1 17 6 -3 10 -2 10 4 0 5 -9 9 -20 8 -11 -1
-19 -7 -17 -14 1 -6 -7 -19 -18 -28 -13 -11 -15 -15 -5 -12 11 3 16 -2 18 -16
1 -17 -1 -19 -8 -7 -9 13 -10 13 -11 0 0 -8 -7 -1 -15 17 -7 17 -23 34 -34 38
-23 7 -27 22 -5 22 8 0 12 -3 10 -7 -6 -9 37 -28 51 -23 7 2 10 13 7 23 -3 11
-1 20 5 20 5 0 12 7 16 15 4 12 2 13 -17 2 -12 -6 -25 -16 -29 -22 -5 -6 -8
-6 -8 1 0 17 59 102 77 108 14 6 14 8 -2 26 -10 11 -23 20 -29 20 -6 0 -5 -4
3 -9 11 -7 9 -11 -8 -20 -19 -11 -25 -8 -22 12 2 11 -12 8 -31 -7 -10 -7 -14
-17 -10 -21 4 -5 1 -5 -6 -1 -11 6 -11 11 0 24 11 12 11 16 0 20 -10 3 -10 7
0 20 12 14 11 14 -9 2 -12 -8 -20 -17 -17 -21 2 -4 -6 -5 -18 -1 -12 3 -19 1
-15 -4 3 -6 1 -16 -5 -24 -8 -12 -9 -12 -5 2 3 9 1 19 -6 22 -8 3 -7 5 2 5 11
1 10 5 -3 20 -10 11 -24 17 -32 14 -8 -3 -14 0 -14 7 0 6 4 9 9 6 5 -3 11 1
15 9 3 8 2 16 -2 18 -8 4 -42 -29 -36 -35 2 -3 -3 -5 -11 -5 -8 0 -13 3 -10 5
3 3 -3 11 -13 18 -16 12 -15 13 4 10 11 -3 27 0 35 6 11 8 11 9 -2 5 -9 -3
-21 -1 -27 5 -8 8 -16 8 -27 -2 -10 -8 -15 -9 -15 -1 0 6 6 11 13 11 8 0 7 4
-3 10 -8 5 -10 10 -4 10 6 0 11 7 11 15 0 13 -3 14 -13 3 -18 -18 -24 -60 -10
-78 10 -13 9 -13 -7 -1 -9 8 -15 16 -13 18 2 3 -3 12 -12 22 -15 14 -19 15
-28 2 -9 -11 -12 -12 -19 -1 -5 8 -4 11 1 7 5 -3 17 8 26 24 16 27 16 29 0 29
-10 0 -23 5 -30 12 -9 9 -12 9 -12 0 0 -6 -7 -9 -15 -6 -8 4 -12 11 -8 18 3 7
1 6 -7 -1 -12 -11 -11 -15 4 -26 16 -12 16 -14 2 -14 -9 0 -16 4 -16 9 0 5 -4
7 -9 3 -6 -3 -8 -14 -6 -25 6 -30 -12 -33 -19 -4 -4 16 -2 30 6 38 32 27 49
54 38 61 -6 3 -9 1 -8 -6 2 -6 -2 -13 -9 -16 -9 -3 -12 40 -11 179 1 182 1
183 26 207 14 13 23 17 19 8 -4 -11 0 -13 14 -10 16 5 19 11 14 31 l-6 26 21
-25 c17 -19 20 -20 16 -5 -5 15 -2 17 14 13 12 -3 18 -1 14 5 -4 6 1 8 14 4
11 -4 23 -3 26 2 3 6 -2 9 -12 8 -11 0 -18 7 -20 22 -2 13 -8 20 -14 16 -7 -5
-8 -2 -3 6 6 10 3 12 -12 8 -12 -3 -20 0 -20 8 0 7 4 11 8 8 4 -2 10 2 12 8 4
10 6 10 6 0 1 -7 6 -10 13 -6 7 4 8 3 4 -4 -5 -8 1 -12 16 -12 17 0 19 -3 9
-9 -9 -6 -10 -11 -2 -15 6 -4 12 -2 12 3 1 6 2 17 3 24 1 6 -2 18 -7 25 -7 8
-4 12 11 12 12 0 24 -4 27 -10 8 -13 25 -13 25 0 0 6 -7 10 -15 10 -25 0 -17
28 12 37 l26 9 -34 17 c-28 13 -30 17 -12 17 12 0 25 5 29 11 3 6 15 8 26 6
16 -5 17 -3 7 9 -10 13 -14 12 -30 -2 -11 -10 -19 -12 -19 -7 0 6 7 14 16 17
8 3 12 11 9 16 -5 8 -11 8 -20 0 -9 -8 -14 -7 -18 4 -4 10 2 16 16 18 12 2 20
7 19 12 -2 5 2 13 10 17 10 7 10 9 -2 10 -8 1 -23 1 -32 0 -10 -1 -18 3 -18
10 0 7 10 9 25 7 29 -6 33 6 8 21 -16 9 -16 10 -2 11 28 0 39 53 25 125 -5 29
3 38 22 23 15 -12 16 -11 3 4 -10 14 -17 15 -33 7 -10 -6 -22 -18 -26 -27 -4
-9 -13 -18 -19 -19 -19 -4 -16 1 21 40 31 33 35 35 55 21 12 -9 21 -11 21 -5
0 6 -5 11 -11 11 -5 0 -7 4 -4 10 3 6 -1 7 -9 4 -9 -3 -16 -1 -16 5 0 6 4 11
9 11 5 0 11 9 14 19 3 14 1 18 -9 14 -9 -3 -12 1 -10 14 3 13 -2 19 -15 19
-11 0 -17 -5 -15 -11 2 -5 10 -9 17 -7 8 2 11 0 7 -4 -4 -4 -2 -14 5 -22 9
-13 9 -14 0 -8 -7 4 -13 2 -13 -3 0 -6 -8 -11 -17 -11 -15 0 -14 2 3 16 15 13
16 15 2 10 -13 -4 -15 -1 -11 11 5 13 2 15 -12 10 -15 -6 -16 -5 -6 7 7 8 10
19 7 25 -3 5 2 7 13 4 14 -4 19 2 23 26 2 17 1 31 -4 31 -4 0 -8 5 -8 11 0 5
6 7 13 3 6 -4 9 -4 5 1 -4 4 0 14 10 22 9 7 13 13 7 12 -23 -3 -36 2 -30 11 4
6 10 8 15 5 4 -3 6 4 3 15 -3 11 -10 17 -16 13 -6 -4 -8 0 -5 9 4 8 0 15 -8
15 -24 0 -25 -27 -1 -37 l22 -9 -23 0 c-21 -1 -22 -2 -8 -17 9 -8 14 -20 11
-25 -9 -13 -15 -11 -12 4 1 6 -3 11 -9 10 -7 -1 -14 7 -17 17 -3 12 -1 17 5
14 5 -3 9 0 7 7 -5 37 2 58 16 53 9 -4 15 0 15 10 0 8 12 23 28 31 15 9 20 14
10 11 -20 -6 -32 32 -17 51 6 7 9 18 6 25 -4 8 -6 7 -6 -4 -1 -12 -6 -15 -18
-11 -12 5 -14 3 -8 -7 5 -9 4 -11 -4 -6 -6 4 -9 12 -6 17 4 5 1 9 -6 9 -7 0
-5 6 6 14 18 13 18 13 -1 24 -10 6 -16 14 -12 18 4 4 14 1 23 -6 12 -10 15
-10 15 1 0 11 2 11 10 -1 7 -11 10 -11 10 -2 0 7 4 11 9 8 5 -3 9 6 9 21 -1
25 -1 26 -14 8 -13 -17 -19 -14 -15 8 0 4 -7 7 -17 7 -13 1 -11 4 7 14 14 8
26 21 27 30 1 9 -2 13 -9 9 -6 -4 -8 0 -4 10 5 13 1 17 -15 17 l-21 0 22 -24
c20 -21 20 -24 5 -30 -12 -4 -15 -2 -10 9 4 13 -23 39 -35 32 -2 -1 2 3 9 8
65 47 63 44 45 71 -14 22 -14 27 -2 36 11 8 11 9 -3 5 -9 -3 -19 -1 -22 6 -2
7 -5 5 -5 -5 -1 -9 3 -19 8 -22 11 -7 20 -55 11 -61 -4 -2 -7 1 -7 8 -1 17 -7
41 -13 47 -3 3 -11 15 -18 28 -12 21 -11 22 18 17 23 -4 30 -2 30 11 0 9 -6
14 -13 11 -8 -3 -14 1 -14 8 0 8 5 13 11 12 12 -2 12 12 1 53 -12 44 -12 75
-2 88 8 10 6 12 -4 10 -8 -2 -17 -7 -22 -13 -4 -5 -5 2 -3 18 3 15 0 27 -5 27
-5 0 -9 10 -9 23 0 13 -6 32 -14 42 -13 18 -14 17 -9 -10 l5 -30 -16 28 c-11
21 -13 34 -5 54 8 23 8 24 -6 13 -23 -19 -48 -5 -41 25 5 19 3 23 -8 19 -12
-4 -13 -11 -5 -32 6 -15 10 -29 10 -32 -1 -3 3 -5 8 -5 5 0 13 -3 17 -8 4 -4
0 -7 -9 -7 -10 0 -17 -4 -17 -10 0 -5 -5 -10 -11 -10 -8 0 -8 5 1 15 14 17 7
19 -20 5 -16 -9 -18 -8 -13 6 4 12 3 15 -5 10 -7 -4 -12 -2 -12 3 0 14 13 14
28 -1 9 -9 12 -5 12 20 0 21 -6 35 -21 42 -11 6 -24 21 -30 33 -8 18 -8 17 -3
-8 l6 -30 -20 23 c-14 16 -22 19 -25 10 -4 -9 -6 -8 -6 3 -1 9 -8 22 -16 29
-13 11 -14 10 -10 -3 4 -8 1 -18 -6 -23 -8 -4 -10 -3 -5 4 4 7 2 12 -3 12 -6
0 -11 -9 -11 -19 0 -11 -4 -23 -10 -26 -5 -3 -10 -1 -10 5 0 6 -4 9 -9 6 -5
-3 -8 8 -7 25 2 26 0 29 -10 15 -6 -10 -18 -14 -28 -10 -9 3 -16 1 -16 -6 0
-6 5 -8 10 -5 6 3 10 1 10 -4 0 -6 -5 -11 -11 -11 -5 0 -7 -4 -4 -10 3 -5 1
-10 -5 -10 -7 0 -10 6 -7 14 3 8 -1 20 -9 27 -13 11 -14 8 -9 -17 4 -23 3 -25
-4 -9 -5 11 -7 31 -4 45 4 23 3 24 -10 7 -8 -10 -14 -26 -12 -35 1 -9 0 -12
-2 -5 -2 6 -17 16 -34 22 -16 5 -29 12 -29 15 0 3 7 3 15 0 8 -3 23 1 35 9 18
12 19 15 5 21 -9 3 -13 2 -10 -4 3 -6 0 -11 -7 -11 -7 -1 -20 -2 -28 -3 -8 0
-17 -12 -18 -25 -3 -19 0 -23 16 -19 15 4 18 1 15 -13 -5 -16 -7 -17 -21 -3
-11 11 -17 12 -22 4 -5 -8 -12 -5 -23 11 -9 12 -14 26 -11 31 3 4 -5 8 -18 8
-18 0 -20 -2 -8 -10 13 -8 12 -10 -2 -10 -10 0 -18 4 -18 8 0 4 -9 8 -20 8
-10 0 -17 -2 -15 -5 3 -2 -4 -11 -16 -19 -11 -8 -21 -12 -23 -11 -1 2 -8 15
-14 29 -7 14 -10 17 -8 8 5 -18 -9 -25 -18 -9 -3 5 -14 11 -25 14 -14 3 -18 1
-14 -9 4 -10 0 -12 -11 -8 -11 4 -19 -1 -25 -17 -7 -16 -10 -18 -10 -8 -1 9
-8 20 -17 23 -8 3 -12 2 -9 -4 3 -6 -1 -10 -10 -10 -9 0 -13 5 -10 10 3 6 -3
11 -14 11 -12 1 -25 3 -31 4 -5 1 -14 3 -20 4 -5 0 -9 6 -7 12 1 6 -5 14 -13
16 -9 3 -11 1 -5 -4 6 -4 11 -15 11 -23 1 -8 3 -24 5 -34 2 -10 -2 -20 -9 -22
-7 -1 -8 0 -3 2 5 3 2 19 -7 37 l-16 32 -6 -25 c-5 -20 -7 -22 -12 -9 -7 17
-52 21 -75 6 -6 -4 -14 -3 -18 3 -4 6 -11 8 -16 4 -5 -3 -7 -10 -4 -15 4 -5 2
-9 -4 -9 -5 0 -11 5 -13 12 -2 6 -10 8 -17 4 -9 -6 -8 -12 5 -27 9 -10 12 -19
7 -19 -11 0 -20 16 -21 34 0 10 -23 26 -37 26 -5 0 -5 -4 2 -8 8 -5 9 -13 3
-22 -7 -11 -10 -12 -10 -2 0 7 -5 10 -10 7 -6 -3 -13 1 -16 10 -6 14 -8 14
-27 -2 -20 -17 -20 -17 -14 1 6 14 4 17 -9 12 -8 -3 -18 -6 -20 -6 -2 0 -4 -6
-4 -14 0 -16 -38 -13 -72 5 -14 7 -18 6 -18 -6 0 -8 -4 -15 -8 -15 -4 0 -8 12
-7 27 0 14 -6 27 -13 29 -7 1 -8 0 -2 -3 18 -9 11 -31 -9 -26 -10 3 -29 -1
-41 -7 -12 -7 -20 -8 -17 -3 8 12 -99 11 -110 -1 -5 -5 0 -6 12 -2 16 6 18 5
8 -5 -10 -10 -17 -8 -34 10 -12 12 -24 20 -27 17 -3 -3 2 -14 12 -25 14 -15
14 -20 3 -29 -14 -12 -37 2 -37 22 0 5 6 2 13 -9 8 -10 16 -14 20 -9 3 5 -3
19 -13 32 -18 22 -19 22 -25 3 -4 -13 -12 -18 -21 -14 -13 5 -13 7 -2 14 10 7
10 9 1 10 -7 1 -19 2 -25 3 -7 1 -20 -1 -29 -5 -9 -5 -21 -3 -26 2 -8 8 -13 7
-18 -2 -5 -8 -4 -10 3 -5 8 5 10 2 6 -8 -8 -22 -27 -8 -21 15 3 10 0 22 -5 26
-6 3 -8 1 -4 -5 3 -6 -1 -17 -9 -25 -9 -9 -11 -17 -5 -20 6 -3 5 -4 -2 -3 -8
2 -12 13 -10 26 4 21 2 22 -12 10 -10 -7 -14 -20 -11 -29 3 -11 0 -9 -10 4
-11 13 -28 19 -54 20 -22 0 -37 -3 -34 -7 2 -5 0 -8 -6 -8 -18 0 -21 18 -5 34
8 9 11 16 5 16 -6 0 -15 -9 -20 -19 -8 -14 -7 -22 4 -31 8 -7 12 -17 9 -22 -4
-6 -20 5 -36 23 -16 19 -28 28 -26 20 3 -13 -21 -21 -64 -22 -9 0 -19 -8 -21
-17 -2 -9 -3 -2 -2 16 2 17 -2 32 -7 32 -6 0 -8 -7 -5 -15 4 -8 2 -17 -4 -20
-5 -4 -6 -11 -3 -17 4 -5 -5 -2 -19 7 -27 18 -73 12 -61 -7 4 -7 2 -8 -5 -4
-6 4 -18 3 -25 -3 -10 -9 -15 -8 -20 4 -3 9 -2 13 4 10 6 -3 10 -1 10 4 0 6 5
10 12 9 6 -2 13 6 15 17 l3 20 -9 -20 -8 -20 -5 20 c-5 16 -6 17 -7 3 -1 -22
-19 -24 -27 -3 -4 8 -10 15 -15 15 -6 0 -5 -8 1 -19 7 -14 6 -21 -3 -24 -9 -3
-9 -7 1 -20 11 -13 10 -15 -11 -13 -13 2 -29 6 -35 10 -15 9 -16 46 -1 46 5 0
7 -4 4 -10 -7 -12 5 -13 21 -2 7 4 -2 13 -23 23 -18 9 -29 12 -24 5 9 -11 -2
-56 -14 -56 -4 0 -4 4 -1 9 4 5 2 20 -3 33 l-10 23 -1 -25 c0 -20 -2 -22 -10
-10 -6 9 -10 11 -10 3 0 -7 -7 -10 -15 -7 -8 4 -12 11 -8 18 4 6 -1 4 -12 -4
-10 -8 -20 -14 -22 -12 -1 1 -9 2 -15 2 -9 0 -8 -4 2 -10 9 -6 10 -10 3 -10
-7 0 -17 8 -22 19 -6 10 -17 21 -25 24 -11 4 -13 0 -10 -20 3 -15 7 -30 9 -34
3 -4 -2 -12 -10 -19 -12 -10 -13 -7 -9 14 2 13 0 28 -6 31 -6 4 -8 10 -6 14 7
10 -52 5 -67 -7 -8 -6 -22 -5 -41 3 -20 8 -25 14 -15 18 11 4 10 6 -2 6 -15 1
-30 -19 -33 -41 -2 -17 -13 -15 -25 4 -10 16 -10 19 1 13 7 -3 4 1 -6 9 -18
14 -21 14 -38 -1 -17 -15 -18 -15 -18 2 0 11 -5 15 -16 11 -9 -3 -18 -6 -20
-6 -3 0 -2 -6 2 -12 6 -10 4 -10 -7 0 -16 14 -33 16 -24 2 3 -5 1 -10 -4 -10
-6 0 -11 -9 -11 -19 0 -30 -35 -23 -38 8 -2 24 -2 24 13 5 16 -18 16 -18 5 4
-11 23 -44 30 -55 12 -4 -6 -11 -8 -16 -5 -5 3 -6 -1 -3 -10 5 -12 10 -13 17
-6 6 6 15 11 21 11 5 0 -1 -8 -12 -19 -12 -10 -19 -21 -15 -25 3 -3 1 -6 -6
-6 -7 0 -11 6 -8 14 3 8 -1 20 -10 28 -14 11 -15 10 -9 -12 6 -19 5 -21 -3
-10 -6 8 -8 25 -4 38 4 17 2 21 -10 16 -10 -4 -14 -16 -12 -37 2 -18 1 -24 -1
-15 -3 9 -18 21 -35 27 -16 5 -29 12 -29 15 0 3 7 3 15 0 8 -3 23 1 35 9 18
12 19 15 5 21 -9 3 -13 2 -10 -4 3 -6 0 -11 -7 -11 -7 -1 -20 -2 -28 -3 -8 0
-17 -12 -18 -25 -3 -19 0 -23 16 -19 15 4 18 1 15 -13 -5 -16 -7 -17 -21 -3
-11 11 -17 12 -22 4 -5 -8 -12 -5 -23 11 -9 12 -14 26 -11 31 3 4 -5 8 -18 8
-18 0 -20 -2 -8 -10 13 -8 12 -10 -2 -10 -10 0 -18 4 -18 8 0 4 -9 8 -20 8
-10 0 -17 -2 -15 -5 3 -2 -4 -11 -16 -19 -11 -8 -21 -12 -23 -11 -1 2 -8 15
-14 29 -7 14 -10 17 -8 8 5 -18 -9 -25 -18 -9 -3 5 -14 11 -25 14 -14 3 -18 1
-14 -9 4 -10 0 -12 -11 -8 -11 4 -19 -1 -25 -17 -7 -16 -10 -18 -10 -8 -1 9
-8 20 -17 23 -8 3 -12 2 -9 -4 3 -6 -1 -10 -10 -10 -9 0 -13 5 -10 10 3 6 -3
11 -14 11 -12 1 -25 3 -31 4 -5 1 -14 3 -20 4 -5 0 -9 6 -7 12 1 6 -5 14 -13
16 -9 3 -11 1 -5 -4 6 -4 11 -15 11 -23 1 -8 3 -24 5 -34 2 -10 -2 -20 -9 -22
-7 -1 -8 0 -3 2 5 3 2 19 -7 37 l-16 32 -6 -25 c-5 -20 -7 -22 -12 -9 -7 17
-52 21 -75 6 -6 -4 -14 -3 -18 3 -4 6 -11 8 -16 4 -5 -3 -7 -10 -4 -15 4 -5 2
-9 -4 -9 -5 0 -11 5 -13 12 -2 6 -10 8 -17 4 -9 -6 -8 -12 5 -27 9 -10 12 -19
7 -19 -10 0 -23 22 -22 36 1 8 -23 24 -36 24 -5 0 -5 -4 2 -8 8 -5 9 -13 3
-22 -7 -11 -10 -12 -10 -2 0 7 -5 10 -10 7 -6 -3 -13 1 -16 10 -6 14 -8 14
-27 -2 -20 -17 -20 -17 -14 1 6 14 4 17 -9 12 -8 -3 -18 -6 -20 -6 -2 0 -4 -6
-4 -14 0 -16 -38 -13 -72 5 -14 7 -18 6 -18 -6 0 -8 -4 -15 -8 -15 -4 0 -8 12
-7 27 0 14 -6 27 -13 29 -7 1 -8 0 -2 -3 18 -9 11 -31 -9 -26 -10 3 -29 -1
-41 -7 -12 -7 -20 -8 -17 -3 8 12 -99 11 -110 -1 -5 -5 0 -6 12 -2 16 6 18 5
8 -5 -10 -10 -17 -8 -34 10 -12 12 -24 20 -27 17 -3 -3 2 -14 11 -24 13 -14
14 -21 5 -30 -13 -13 -38 1 -38 21 0 6 6 3 13 -8 8 -10 16 -14 20 -9 3 5 -3
19 -13 32 -18 22 -19 22 -25 3 -4 -13 -12 -18 -21 -14 -13 5 -13 7 -2 14 10 7
10 9 1 10 -7 1 -19 2 -25 3 -7 1 -20 -1 -29 -5 -9 -5 -21 -3 -26 2 -8 8 -13 7
-18 -2 -5 -8 -4 -10 3 -5 8 5 10 2 6 -8 -8 -22 -27 -8 -21 15 3 10 0 22 -5 26
-6 3 -8 1 -4 -5 3 -6 -1 -17 -9 -25 -9 -9 -11 -17 -5 -20 6 -3 5 -4 -2 -3 -8
2 -12 13 -10 26 4 21 2 22 -12 10 -10 -7 -14 -20 -11 -29 3 -11 0 -9 -10 4
-11 13 -28 19 -54 20 -22 0 -37 -3 -34 -7 2 -5 0 -8 -6 -8 -18 0 -21 18 -5 34
8 9 11 16 5 16 -6 0 -15 -9 -20 -19z m1803 -2129 c4 -10 13 -19 21 -19 19 0
19 2 0 21 -14 14 -10 15 34 13 42 -1 48 -3 38 -16 -10 -12 -9 -13 9 -3 12 6
24 8 28 5 3 -3 6 -2 6 4 0 8 78 11 245 11 229 0 245 -1 245 -18 0 -9 -8 -24
-17 -31 -16 -13 -17 -12 -4 4 12 15 12 17 -4 10 -14 -5 -17 -3 -12 9 5 14 1
15 -23 8 -16 -4 -32 -5 -36 -2 -4 4 2 -6 12 -23 10 -16 14 -26 7 -22 -7 5 -17
-1 -23 -14 -7 -11 -14 -18 -17 -15 -4 3 -12 1 -19 -5 -8 -7 -14 -7 -19 1 -3 5
0 10 9 10 8 0 13 8 12 18 -2 9 4 22 13 29 9 6 13 15 9 19 -4 4 -14 1 -23 -6
-12 -10 -15 -10 -15 4 0 9 -8 16 -20 16 -11 0 -20 -4 -20 -9 0 -5 -10 -11 -22
-14 -17 -5 -19 -9 -9 -21 9 -11 9 -16 0 -22 -8 -4 -9 -3 -5 4 4 7 -6 19 -23
30 -17 10 -28 22 -24 25 3 4 4 7 0 7 -15 0 -15 -20 0 -36 17 -17 17 -17 -2 -9
-11 5 -32 8 -47 8 -24 0 -26 1 -11 12 13 9 13 14 3 20 -9 6 -11 4 -5 -5 6 -10
4 -12 -8 -7 -9 3 -16 3 -16 -1 3 -21 -3 -24 -17 -6 -8 10 -13 13 -9 7 3 -7 1
-13 -6 -13 -7 0 -4 -7 7 -16 18 -14 18 -15 -5 -4 -23 12 -23 11 -17 -31 3 -23
3 -40 0 -37 -12 12 -15 68 -5 87 7 13 8 22 1 26 -5 3 -10 -2 -10 -12 0 -15 -2
-16 -11 -3 -8 12 -10 9 -6 -12 2 -16 0 -28 -6 -28 -7 0 -7 -4 1 -12 7 -7 12
-16 12 -22 0 -5 -3 -6 -7 -3 -3 4 -11 3 -17 -3 -8 -6 -16 -3 -24 10 -7 12 -8
21 -2 25 6 4 9 1 8 -6 -2 -6 2 -13 8 -16 14 -5 17 54 3 63 -5 3 -6 11 -3 17 4
7 3 8 -2 4 -5 -5 -10 -13 -10 -18 -1 -5 -2 -13 -3 -19 -1 -13 -31 -13 -31 1 0
5 5 7 10 4 6 -3 10 -1 10 4 0 6 -9 11 -20 11 -11 0 -20 -6 -20 -14 0 -8 -4
-18 -10 -21 -5 -3 -7 0 -4 9 5 14 -2 15 -59 7 -5 0 -5 -5 -2 -11 3 -5 1 -10
-5 -10 -6 0 -8 -5 -4 -11 4 -8 0 -8 -15 0 -11 7 -21 8 -21 4 0 -4 -7 0 -15 10
-7 11 -11 26 -8 34 4 10 0 13 -12 11 -10 -2 -20 3 -22 10 -3 8 8 12 35 12 31
0 42 -5 46 -18z m2070 6 c-6 -10 -4 -10 7 -2 19 15 120 15 112 0 -4 -6 0 -5 8
1 18 15 232 16 223 2 -3 -5 -10 -6 -16 -3 -6 4 -6 -2 1 -15 8 -14 8 -21 1 -21
-5 0 -10 -4 -10 -9 0 -5 -13 -23 -29 -39 l-29 -29 1 26 c1 14 -2 27 -8 28 -5
1 -9 -6 -8 -15 2 -18 -13 -32 -35 -32 -8 0 -12 6 -9 13 2 6 13 11 23 9 18 -3
18 -3 2 14 -16 16 -16 18 0 31 16 12 16 13 0 7 -12 -4 -18 -1 -18 7 -1 10 -4
9 -13 -3 -15 -19 -43 -8 -33 13 4 8 2 7 -6 -2 -29 -34 -104 -23 -82 12 5 8 3
9 -5 5 -7 -5 -10 -14 -7 -22 3 -8 1 -14 -4 -14 -6 0 -10 6 -10 14 0 22 -21 31
-34 15 -6 -8 -16 -15 -21 -16 -6 -1 -18 -5 -27 -8 -11 -4 -18 -3 -18 4 0 6 7
11 15 11 8 0 15 7 15 15 0 8 5 15 11 15 5 0 7 -6 3 -12z"/>
</g>
</svg>
